<svg xmlns="http://www.w3.org/2000/svg" viewBox="0 0 220 220" role="img" aria-label="握拳手势">
  <defs>
    <radialGradient id="bg" cx="50%" cy="50%" r="55%">
      <stop offset="0%" stop-color="#fff6dd" stop-opacity=".18"/>
      <stop offset="42%" stop-color="#f0d18a" stop-opacity=".12"/>
      <stop offset="100%" stop-color="#060606" stop-opacity="0"/>
    </radialGradient>
    <linearGradient id="hand" x1="65" y1="52" x2="154" y2="178">
      <stop offset="0%" stop-color="#fff6dd"/>
      <stop offset="58%" stop-color="#d8b36a"/>
      <stop offset="100%" stop-color="#6d4b2a"/>
    </linearGradient>
    <filter id="glow" x="-40%" y="-40%" width="180%" height="180%">
      <feGaussianBlur stdDeviation="4" result="blur"/>
      <feColorMatrix in="blur" type="matrix" values="1 0 0 0 1 0 0.82 0 0 0.74 0 0 0.46 0 0 0 0 0 .65 0"/>
      <feMerge><feMergeNode/><feMergeNode in="SourceGraphic"/></feMerge>
    </filter>
  </defs>
  <rect width="220" height="220" fill="#080806"/>
  <circle cx="110" cy="110" r="92" fill="url(#bg)"/>
  <g fill="none" stroke="#d8b36a" stroke-opacity=".38" stroke-width="1">
    <ellipse cx="110" cy="151" rx="76" ry="16"/>
    <ellipse cx="110" cy="151" rx="58" ry="10"/>
    <circle cx="110" cy="112" r="70" stroke-dasharray="3 8"/>
  </g>
  <g filter="url(#glow)">
    <path d="M77 174c-6-23-9-44-8-61 1-18 11-31 25-35 8-3 16-2 23 2 7-5 17-6 25-2 14 6 21 20 19 38-2 21-6 40-14 58z" fill="url(#hand)" opacity=".55"/>
    <path d="M76 96c4-16 20-22 32-13 7-13 28-14 35 1 15-3 27 10 24 25-3 16-16 22-33 18-12-3-22-2-35 0-17 2-30-11-23-31z" fill="url(#hand)" opacity=".9"/>
    <path d="M75 97c5-14 19-18 31-10m3-4c7-10 24-10 32 2m3-1c14-1 22 11 19 24M80 126c16 9 37 8 58 2m-51-35c-3 10 0 18 8 25m20-33c-4 12-2 24 5 34m20-33c-6 11-6 24-1 35" stroke="#fff6dd" stroke-opacity=".7" stroke-width="3" stroke-linecap="round"/>
    <path d="M87 174c-2-17-3-30 1-43m48 43c6-16 9-30 7-44" stroke="#fff6dd" stroke-opacity=".45" stroke-width="2" stroke-linecap="round"/>
  </g>
  <g fill="#f0d18a" opacity=".8">
    <circle cx="54" cy="52" r="1.3"/><circle cx="170" cy="48" r="1.1"/><circle cx="185" cy="154" r="1.2"/><circle cx="38" cy="154" r="1"/>
  </g>
</svg>
