<svg preserveAspectRatio="none" width="100%" height="100%" overflow="visible" style="display: block;" viewBox="0 0 184 93.9851" fill="none" xmlns="http://www.w3.org/2000/svg">
<g id="&#228;&#186;&#145;2">
<path id="Vector" d="M35.7332 32.4452C49.0427 31.8908 62.1708 32.6202 75.4694 32.9823L120.672 33.698C107.828 71.646 169.182 34.6053 158.038 66.217C155.882 72.3472 125.778 67.8363 120.849 69.0147C119.848 69.2532 114.484 69.3833 113.333 72.246C108.621 87.6872 125.659 78.4847 129.919 83.7257C135.445 96.2753 118.739 93.8391 114.276 93.7162C78.6571 92.9717 42.8757 94.3958 7.27161 93.1596C-2.16498 92.8271 -3.43643 71.2773 9.56778 71.0026C13.9632 70.9159 20.9672 70.6122 25.6098 70.6195C35.6109 70.7568 45.6125 70.6918 55.6125 70.4244C58.8427 67.3737 61.0336 64.5255 59.4486 58.2941C58.4544 55.0988 55.6482 54.0289 53.5153 53.4651C46.2676 51.5494 24.6287 57.9398 30.4095 38.248C31.4151 34.82 33.4738 33.7219 35.7332 32.4452Z" fill="url(#paint0_linear_0_15)" fill-opacity="0.11"/>
<path id="Vector_2" d="M76.0815 0.635195C85.9659 0.0800059 140.955 -0.908932 146.211 1.86484C148.652 3.15305 150.601 6.04465 151.487 9.43506C152.467 13.1464 152.519 18.2097 151.15 21.7446C149.569 25.8254 146.916 27.5749 143.925 28.9505C141.929 28.9773 139.597 28.8725 137.648 29.077C122.72 30.6407 108.098 30.5301 93.1499 30.6081C91.1699 29.0626 94.0828 25.1965 91.4394 19.8947C86.0333 14.1397 76.2577 23.1746 71.8313 12.5985C69.6014 7.26855 72.728 3.06342 76.0815 0.635195Z" fill="url(#paint1_linear_0_15)" fill-opacity="0.11"/>
<path id="Vector_3" d="M173.852 52.533C184.69 51.8318 187.386 64.2874 179.31 69.1164C168.824 69.8899 164.849 59.697 173.852 52.533Z" fill="url(#paint2_linear_0_15)" fill-opacity="0.11"/>
</g>
<defs>
<linearGradient id="paint0_linear_0_15" x1="79.6994" y1="32.2441" x2="79.6994" y2="93.9849" gradientUnits="userSpaceOnUse">
<stop stop-color="#CAAB7E"/>
<stop offset="1" stop-color="#9A6B67"/>
</linearGradient>
<linearGradient id="paint1_linear_0_15" x1="111.641" y1="-6.15546e-09" x2="111.641" y2="30.6081" gradientUnits="userSpaceOnUse">
<stop stop-color="#CAAB7E"/>
<stop offset="1" stop-color="#9A6B67"/>
</linearGradient>
<linearGradient id="paint2_linear_0_15" x1="176.428" y1="52.5046" x2="176.428" y2="69.1579" gradientUnits="userSpaceOnUse">
<stop stop-color="#CAAB7E"/>
<stop offset="1" stop-color="#9A6B67"/>
</linearGradient>
</defs>
</svg>
