<svg preserveAspectRatio="none" width="100%" height="100%" overflow="visible" style="display: block;" viewBox="0 0 289 239.969" fill="none" xmlns="http://www.w3.org/2000/svg">
<g id="&#228;&#186;&#145;10">
<path id="Vector" d="M90.0723 0.0847042C97.9759 0.607476 105.323 0.321275 113.206 0.315505L153.369 0.234147C155.82 0.234147 169.977 -0.310551 171.436 0.458604C176.605 0.710758 179.872 0.579776 184.675 3.64947C187.031 7.10692 188.661 10.423 188.526 15.4568C188.421 19.3753 187.594 23.2228 185.43 25.9013C184.044 27.6179 182.291 28.7402 180.485 29.2826C169.723 32.5156 136.078 26.0519 129.244 32.0367C125.922 34.9454 125.081 39.6226 124.357 44.5976C129.513 69.6457 146.509 46.6172 152.693 67.4738C153.737 70.9947 153.244 75.9986 151.9 79.3545C150.412 83.0929 147.887 85.8112 144.917 86.8706C141.046 88.2456 132.747 87.6721 128.344 87.6957L103.002 87.949C99.5034 87.9848 94.775 87.7379 91.5434 89.0661C87.259 90.8272 84.8499 101.599 86.9487 106.515C91.1016 116.243 109.325 113.265 116.081 113.193C128.661 113.094 141.24 112.891 153.819 112.586C162.303 112.385 175.856 109.39 179.259 122.361C181.049 129.186 178.378 138.077 173.222 140.27C163.819 144.354 150.172 134.031 147.055 153.298C149.918 168.908 157.582 165.691 167.12 165.588L185.433 165.555L255.882 165.03C262.655 165.027 269.37 164.998 276.19 165.169C281.885 165.313 286.773 166.676 288.572 175.484C289.236 178.735 289.203 183.384 287.931 186.307C286.458 189.669 284.086 192.073 281.34 192.989C278.519 193.902 265.936 193.702 262.418 193.711L210.942 193.777C202.749 193.752 193.569 193.026 185.48 194.377C180.858 195.148 177.593 202.601 178.834 209.109C182.674 229.262 213.199 203.438 207.051 234.296C206.669 235.833 204.103 238.892 202.963 238.993C193.353 239.842 188.846 240.285 178.469 239.707C162.713 238.83 143.345 241.729 127.886 237.973C124.655 235.211 123.446 226.909 125.202 223.302C132.024 209.287 158.819 228.503 157.799 204.682C157.336 193.867 139.016 197.032 134.088 197.184L105.716 197.842C98.7719 197.986 85.48 200.106 83.4784 187.28C82.1971 179.071 85.2781 170.945 92.3163 169.063C100.217 166.952 117.812 172.932 123.426 163.75C128.045 156.196 123.29 143.18 116.067 143.756C81.3035 142.527 46.5602 143.9 11.7963 143.571C3.30802 143.491 -3.39049 131.656 1.85256 120.685C6.32652 111.324 13.0081 113.439 19.7364 113.368C31.8873 113.137 44.1772 113.934 56.2826 112.776C57.9441 112.617 61.4574 109.278 62.2431 107.038C66.5383 94.7889 60.4471 88.207 51.6076 87.9779C41.8848 87.7257 21.6966 92.5963 25.4358 69.3762C27.5358 56.3346 37.3467 58.2572 44.72 57.9358C56.5867 57.5677 68.4567 57.439 80.3263 57.5498C86.6231 57.5446 93.1553 57.9577 99.5535 56.8026C105.22 55.7789 109.347 48.1514 107.697 40.1523C105.082 27.4708 93.5181 30.5215 86.4758 30.2393C79.6308 29.9843 71.989 32.3044 68.7306 20.9812C66.9661 14.8498 68.2544 9.04972 71.2671 4.29053C76.4584 -0.971806 83.7569 0.0893203 90.0723 0.0847042Z" fill="url(#paint0_linear_0_22)" fill-opacity="0.11"/>
<path id="Vector_2" d="M199.304 113.288C206.11 112.975 239.39 111.763 243.793 114.667C246.36 116.36 248.402 119.79 249.327 123.515C250.064 126.481 250.054 129.476 249.078 132.318C247.257 137.622 245.076 139.829 241.197 141.752C235.309 142.377 201.021 143.345 196.682 140.86C194.121 139.394 192.123 136.333 191.202 132.709C190.243 128.857 190.439 124.63 191.746 120.983C193.441 116.226 196.008 114.827 199.304 113.288Z" fill="url(#paint1_linear_0_22)" fill-opacity="0.11"/>
</g>
<defs>
<linearGradient id="paint0_linear_0_22" x1="144.5" y1="4.70877e-06" x2="144.5" y2="239.969" gradientUnits="userSpaceOnUse">
<stop stop-color="#CAAB7E"/>
<stop offset="1" stop-color="#9A6B67"/>
</linearGradient>
<linearGradient id="paint1_linear_0_22" x1="220.225" y1="112.77" x2="220.225" y2="142.472" gradientUnits="userSpaceOnUse">
<stop stop-color="#CAAB7E"/>
<stop offset="1" stop-color="#9A6B67"/>
</linearGradient>
</defs>
</svg>
