<svg preserveAspectRatio="none" width="100%" height="100%" overflow="visible" style="display: block;" viewBox="0 0 209 64" fill="none" xmlns="http://www.w3.org/2000/svg">
<path id="&#228;&#186;&#145;6" d="M5.08311 0.239443C11.4963 -0.217973 20.2423 0.120414 26.829 0.121482L67.1716 0.129496L100.808 0.0948013C106.861 0.0787891 112.925 0.147645 119.065 0.185007C127.127 -1.3986 128.849 16.0718 121.754 16.8719C108.302 18.0552 94.7182 16.9391 81.2021 17.4601C73.6694 17.7504 76.2528 32.1529 78.5267 34.227C80.5977 34.5932 83.0229 32.4043 84.7836 30.9659C114.492 30.4311 144.242 30.6958 173.954 30.7929C180.322 30.8137 201.388 29.2152 206.055 31.5984C207.523 32.3472 208.353 33.0688 209 35.0714C208.927 38.1874 207.277 40.2802 205.052 40.2738C198.186 40.2556 191.318 40.2375 184.451 40.2268L141.379 40.2236C133.973 40.2065 123.494 39.7748 116.359 40.5118C114.467 42.7226 111.984 46.1183 112.915 49.8886C114.069 52.0129 115.671 52.9784 117.499 53.5458C120.59 54.506 123.936 54.134 127.085 54.1057C133.858 54.0449 153.169 52.7447 158.973 54.3881C160.249 54.7494 162.076 55.4022 162.79 57.0722C163.151 57.9166 163.209 58.7434 162.995 59.6774C162.699 60.9765 161.982 62.2597 161.063 62.7731C156.66 65.2337 78.6918 63.2402 68.4256 63.1959C48.2389 63.1094 27.9929 63.7355 7.81513 63.2273C6.38573 63.191 4.90462 63.0677 3.58974 62.2143C1.99335 61.1783 1.1626 59.3823 0.549018 57.1502C-0.0136264 55.1033 -0.292457 52.7991 0.449437 50.7687C1.44986 48.0317 3.78738 46.5666 5.83841 45.8968C11.3963 44.0804 28.515 45.3764 35.1978 45.4425C38.3775 45.4735 41.8411 45.8653 44.911 44.5576C46.4683 43.8941 48.0145 42.6303 48.7342 40.5076C49.2581 38.9624 49.3052 36.781 48.81 35.2091C48.0616 32.8334 45.6789 31.8892 44.0829 31.023C44.8776 29.5995 46.0213 27.6796 46.3338 25.9903C47.8314 16.7187 39.5963 17.3571 35.4035 17.1516C25.9603 16.6883 14.6124 18.3706 5.42093 16.7C-1.31204 15.4767 -2.0681 5.05539 5.08311 0.239443Z" fill="url(#paint0_linear_0_13)" fill-opacity="0.11"/>
<defs>
<linearGradient id="paint0_linear_0_13" x1="104.5" y1="3.54773e-09" x2="104.5" y2="64" gradientUnits="userSpaceOnUse">
<stop stop-color="#CAAB7E"/>
<stop offset="1" stop-color="#9A6B67"/>
</linearGradient>
</defs>
</svg>
