<svg preserveAspectRatio="none" width="100%" height="100%" overflow="visible" style="display: block;" viewBox="0 0 272 130" fill="none" xmlns="http://www.w3.org/2000/svg">
<path id="&#228;&#186;&#145;1" d="M60.2614 0.174582L147.332 0.0906077C162.849 0.0753376 178.43 -0.298847 193.917 0.594454C202.763 1.106 206.635 18.4834 196.846 22.5681C189.315 25.7138 180.753 22.4155 175.065 31.5622C171.673 37.0213 172.175 47.3515 176.183 52.0394C182.962 60.5601 193.825 56.6205 202.185 57.3535C222.134 57.3611 242.208 57.5291 262.135 58.3155C274.263 58.7736 275.441 81.2893 264.376 84.328C257.663 86.1681 247.819 85.1526 240.806 85.1984L169.693 85.5649C161.342 85.6642 152.296 84.8167 144.118 85.5496C134.527 86.4124 133.394 98.6132 140.659 106.813C152.819 108.554 165.909 106.737 178.141 107.073C185.454 107.271 195.548 104.446 201.209 111.677C204.868 121.419 201.236 129.398 193.487 129.558C182.58 129.795 171.667 129.688 160.754 129.665L98.9344 129.558L69.0698 129.596C61.2605 129.665 39.5847 133.902 44.0794 113.273C46.8203 100.698 61.2681 105.836 68.1749 104.744C77.6677 103.194 99.1308 111.028 102.25 93.1466C106.832 66.882 76.0442 72.6999 65.1531 72.5853L23.8362 72.1273C18.1734 72.0891 3.40551 74.7079 1.04908 65.6298C-5.25619 41.3351 18.535 46.0154 27.8336 46.1834C38.5965 46.2979 49.36 46.2826 60.1229 46.1452C67.7211 46.1452 81.4055 49.7184 83.9991 36.9144C84.5243 34.4025 84.2838 31.692 83.3349 29.4397C76.9222 14.1085 49.7341 35.0591 53.6998 7.76377C54.2162 4.21348 57.9077 1.53362 60.2614 0.174582Z" fill="url(#paint0_linear_0_4)" fill-opacity="0.11"/>
<defs>
<linearGradient id="paint0_linear_0_4" x1="136" y1="9.97312e-09" x2="136" y2="130" gradientUnits="userSpaceOnUse">
<stop stop-color="#CAAB7E"/>
<stop offset="1" stop-color="#9A6B67"/>
</linearGradient>
</defs>
</svg>
