<svg preserveAspectRatio="none" width="100%" height="100%" overflow="visible" style="display: block;" viewBox="0 0 356 106" fill="none" xmlns="http://www.w3.org/2000/svg">
<path id="&#228;&#186;&#145;7" d="M60.2874 0.52459C115.377 -0.861479 170.916 1.00614 226.035 0.41078C229.198 0.376808 235.911 0.828646 237.477 5.05734C252.111 44.5459 192.421 17.4708 182.084 31.2627C177.465 36.8282 180.785 49.6791 186.588 50.7178C192.937 51.8533 200.172 51.4507 206.636 51.4448C220.3 51.5042 233.963 51.3386 247.626 50.9505C281.526 50.2549 315.917 50.666 349.835 50.7067C352.834 50.7101 356.208 54.1812 355.99 58.9127C355.838 62.1214 354.375 64.9165 352.233 66.0792C349.471 67.6215 333.465 67.1383 329.568 67.1306L268.427 67.0831C259.99 67.0873 251.195 66.5803 242.855 67.0584C232.36 67.6606 231.031 89.5889 243.474 89.3239C248.105 89.2245 253.301 89.272 257.981 89.2015C263.377 89.2729 279.104 86.302 278.837 97.8178C276.931 103.05 272.421 105.999 268.312 106C232.913 106.007 197.495 104.741 162.12 104.155L107.48 103.232C98.5332 103.167 65.8412 105.057 59.3222 101.835C57.0097 100.693 55.6804 99.2582 54.6303 96.182C54.9034 84.2993 69.5196 85.9844 75.2313 86.1568C76.3967 85.1173 79.1098 82.8649 79.5286 81.0185C82.7881 66.3501 70.9338 66.937 64.2085 66.8809C45.7138 66.7263 27.3284 67.5035 8.8276 67.0797C-1.35146 66.8469 -3.11171 53.4101 5.56204 50.1793C9.15536 48.8416 19.1827 49.5432 23.4862 49.5525L56.5727 49.4778C66.0841 49.3818 75.298 48.2098 85.0521 48.1792C93.9565 47.549 104.166 50.2999 112.724 46.4534C117.337 44.3785 118.879 33.1108 117.058 28.6757C112.239 16.9306 95.6683 21.5789 87.7411 20.9113C78.9217 19.9262 66.3814 23.5603 58.0233 19.3537C49.4649 15.0469 53.2525 4.49425 60.2874 0.52459Z" fill="url(#paint0_linear_0_14)" fill-opacity="0.11"/>
<defs>
<linearGradient id="paint0_linear_0_14" x1="178" y1="9.34406e-09" x2="178" y2="106" gradientUnits="userSpaceOnUse">
<stop stop-color="#CAAB7E"/>
<stop offset="1" stop-color="#9A6B67"/>
</linearGradient>
</defs>
</svg>
