<svg width="284" height="499" viewBox="0 0 284 499" fill="none" xmlns="http://www.w3.org/2000/svg">
<path d="M273.013 0.5C273.267 6.17726 277.823 10.7323 283.5 10.9863V487.513C277.823 487.767 273.267 492.323 273.013 498H10.9873C10.7333 492.323 6.17727 487.767 0.5 487.513V10.9863C6.17725 10.7323 10.7333 6.17726 10.9873 0.5H273.013Z" fill="#D1AC8B" fill-opacity="0.07" stroke="#D1AC8B"/>
<path d="M268.59 8.25C268.721 13.8079 273.195 18.286 278.75 18.417V480.582C273.195 480.713 268.721 485.192 268.59 490.75H14.4102C14.2794 485.192 9.80482 480.713 4.25 480.582V18.417C9.80481 18.286 14.2794 13.8079 14.4102 8.25H268.59Z" fill="black" fill-opacity="0.01" stroke="#D1AC8B" stroke-width="0.5"/>
</svg>
