<svg width="490" height="66" viewBox="0 0 490 66" fill="none" xmlns="http://www.w3.org/2000/svg">
<path d="M479.013 0.5C479.267 6.17726 483.823 10.7323 489.5 10.9863V54.5127C483.823 54.7667 479.267 59.3227 479.013 65H10.9873C10.7333 59.3227 6.17727 54.7667 0.5 54.5127V10.9863C6.17725 10.7323 10.7333 6.17726 10.9873 0.5H479.013Z" fill="#D1AC8B" fill-opacity="0.07" stroke="#D1AC8B"/>
<path d="M474.604 4.2002C474.711 9.73168 479.217 14.1895 484.8 14.2939V51.7051C479.217 51.8095 474.711 56.2683 474.604 61.7998H15.3955C15.289 56.2683 10.7825 51.8095 5.2002 51.7051V14.2939C10.7825 14.1895 15.289 9.73168 15.3955 4.2002H474.604Z" stroke="#D1AC8B" stroke-width="0.4"/>
</svg>
