<svg width="107" height="42" viewBox="0 0 107 42" fill="none" xmlns="http://www.w3.org/2000/svg">
<mask id="path-1-inside-1_69_100" fill="white">
<path d="M89.4414 0C92.9399 0 95.8129 2.67165 96.1348 6.08594C99.176 6.406 101.546 8.97845 101.546 12.1045V14.2197L106.582 20.4238C106.782 20.6708 106.783 21.0245 106.582 21.2715L101.546 27.4746V30.2617C101.546 33.4219 99.1241 36.0142 96.0352 36.2881C95.4222 39.3707 92.7041 41.6943 89.4414 41.6943H6.72461C3.01072 41.6942 6.62286e-05 38.6836 0 34.9697V6.72461C0.00017064 3.01079 3.01079 0.000169944 6.72461 0H89.4414Z"/>
</mask>
<path d="M89.4414 0C92.9399 0 95.8129 2.67165 96.1348 6.08594C99.176 6.406 101.546 8.97845 101.546 12.1045V14.2197L106.582 20.4238C106.782 20.6708 106.783 21.0245 106.582 21.2715L101.546 27.4746V30.2617C101.546 33.4219 99.1241 36.0142 96.0352 36.2881C95.4222 39.3707 92.7041 41.6943 89.4414 41.6943H6.72461C3.01072 41.6942 6.62286e-05 38.6836 0 34.9697V6.72461C0.00017064 3.01079 3.01079 0.000169944 6.72461 0H89.4414Z" fill="url(#paint0_linear_69_100)"/>
<path d="M96.1348 6.08594L95.1392 6.1798L95.216 6.99477L96.0301 7.08045L96.1348 6.08594ZM101.546 12.1045H102.546V12.1044L101.546 12.1045ZM101.546 14.2197H100.546V14.5745L100.769 14.85L101.546 14.2197ZM106.582 20.4238L107.359 19.7938L107.358 19.7936L106.582 20.4238ZM106.582 21.2715L105.806 20.6412L105.806 20.6412L106.582 21.2715ZM101.546 27.4746L100.77 26.8443L100.546 27.1198V27.4746H101.546ZM96.0352 36.2881L95.9468 35.292L95.2005 35.3582L95.0544 36.0931L96.0352 36.2881ZM6.72461 41.6943L6.72456 42.6943H6.72461V41.6943ZM0 34.9697H-1V34.9697L0 34.9697ZM0 6.72461L-1 6.72456V6.72461H0ZM6.72461 0V-1H6.72456L6.72461 0ZM89.4414 0V1C92.4188 1 94.8652 3.27395 95.1392 6.1798L96.1348 6.08594L97.1303 5.99207C96.7605 2.06934 93.461 -1 89.4414 -1V0ZM96.1348 6.08594L96.0301 7.08045C98.5677 7.3475 100.546 9.49554 100.546 12.1046L101.546 12.1045L102.546 12.1044C102.546 8.46136 99.7844 5.4645 96.2394 5.09143L96.1348 6.08594ZM101.546 12.1045H100.546V14.2197H101.546H102.546V12.1045H101.546ZM101.546 14.2197L100.769 14.85L105.806 21.0541L106.582 20.4238L107.358 19.7936L102.322 13.5895L101.546 14.2197ZM106.582 20.4238L105.805 21.0538C105.708 20.9339 105.708 20.7618 105.806 20.6412L106.582 21.2715L107.358 21.9018C107.857 21.2873 107.857 20.4077 107.359 19.7938L106.582 20.4238ZM106.582 21.2715L105.806 20.6412L100.77 26.8443L101.546 27.4746L102.322 28.1049L107.358 21.9018L106.582 21.2715ZM101.546 27.4746H100.546V30.2617H101.546H102.546V27.4746H101.546ZM101.546 30.2617H100.546C100.546 32.8988 98.5248 35.0634 95.9468 35.292L96.0352 36.2881L96.1235 37.2842C99.7235 36.965 102.546 33.945 102.546 30.2617H101.546ZM96.0352 36.2881L95.0544 36.0931C94.5326 38.7172 92.2174 40.6943 89.4414 40.6943V41.6943V42.6943C93.1908 42.6943 96.3118 40.0242 97.016 36.4831L96.0352 36.2881ZM89.4414 41.6943V40.6943H6.72461V41.6943V42.6943H89.4414V41.6943ZM6.72461 41.6943L6.72466 40.6943C3.56299 40.6942 1.00006 38.1313 1 34.9697L0 34.9697L-1 34.9697C-0.999924 39.236 2.45846 42.6941 6.72456 42.6943L6.72461 41.6943ZM0 34.9697H1V6.72461H0H-1V34.9697H0ZM0 6.72461L1 6.72466C1.00015 3.56308 3.56308 1.00014 6.72466 1L6.72461 0L6.72456 -1C2.45849 -0.999805 -0.999804 2.45849 -1 6.72456L0 6.72461ZM6.72461 0V1H89.4414V0V-1H6.72461V0Z" fill="#8D1C14" mask="url(#path-1-inside-1_69_100)"/>
<mask id="path-3-inside-2_69_100" fill="white">
<path d="M85.4229 1.34521C88.6849 1.3454 91.3637 3.83647 91.6641 7.02002C94.5002 7.3185 96.71 9.7181 96.71 12.6333V14.606L101.406 20.3901C101.593 20.6205 101.593 20.9508 101.406 21.1812L96.71 26.9644V29.5649C96.7099 32.5114 94.4522 34.9282 91.5723 35.1841C91.0008 38.0586 88.4652 40.2259 85.4229 40.2261H8.28906C4.82567 40.2261 2.01758 37.418 2.01758 33.9546V7.6167C2.01758 4.1533 4.82567 1.34521 8.28906 1.34521H85.4229Z"/>
</mask>
<path d="M85.4229 1.34521L85.4229 0.845215H85.4229V1.34521ZM91.6641 7.02002L91.1663 7.06698L91.2047 7.47444L91.6117 7.51727L91.6641 7.02002ZM96.71 14.606H96.21V14.7834L96.3218 14.9211L96.71 14.606ZM101.406 20.3901L101.794 20.075V20.075L101.406 20.3901ZM101.406 21.1812L101.794 21.4963L101.794 21.4963L101.406 21.1812ZM96.71 26.9644L96.3218 26.6492L96.21 26.7869V26.9644H96.71ZM96.71 29.5649L97.21 29.5649V29.5649H96.71ZM91.5723 35.1841L91.528 34.686L91.1549 34.7192L91.0819 35.0866L91.5723 35.1841ZM85.4229 40.2261V40.7261H85.4229L85.4229 40.2261ZM85.4229 1.34521L85.4228 1.84521C88.4244 1.84539 90.8899 4.13763 91.1663 7.06698L91.6641 7.02002L92.1618 6.97306C91.8375 3.53531 88.9455 0.845417 85.4229 0.845215L85.4229 1.34521ZM91.6641 7.02002L91.6117 7.51727C94.1959 7.78924 96.21 9.97655 96.21 12.6333H96.71H97.21C97.21 9.45964 94.8044 6.84775 91.7164 6.52277L91.6641 7.02002ZM96.71 12.6333H96.21V14.606H96.71H97.21V12.6333H96.71ZM96.71 14.606L96.3218 14.9211L101.018 20.7053L101.406 20.3901L101.794 20.075L97.0981 14.2908L96.71 14.606ZM101.406 20.3901L101.018 20.7053C101.056 20.752 101.056 20.8193 101.018 20.866L101.406 21.1812L101.794 21.4963C102.131 21.0823 102.131 20.489 101.794 20.075L101.406 20.3901ZM101.406 21.1812L101.018 20.866L96.3218 26.6492L96.71 26.9644L97.0981 27.2795L101.794 21.4963L101.406 21.1812ZM96.71 26.9644H96.21V29.5649H96.71H97.21V26.9644H96.71ZM96.71 29.5649L96.21 29.5649C96.2099 32.2499 94.1525 34.4528 91.528 34.686L91.5723 35.1841L91.6165 35.6821C94.7519 35.4035 97.2099 32.773 97.21 29.5649L96.71 29.5649ZM91.5723 35.1841L91.0819 35.0866C90.556 37.7318 88.2219 39.7259 85.4228 39.7261L85.4229 40.2261L85.4229 40.7261C88.7086 40.7259 91.4456 38.3854 92.0627 35.2816L91.5723 35.1841ZM85.4229 40.2261V39.7261H8.28906V40.2261V40.7261H85.4229V40.2261ZM8.28906 40.2261V39.7261C5.10181 39.7261 2.51758 37.1418 2.51758 33.9546H2.01758H1.51758C1.51758 37.6941 4.54952 40.7261 8.28906 40.7261V40.2261ZM2.01758 33.9546H2.51758V7.6167H2.01758H1.51758V33.9546H2.01758ZM2.01758 7.6167H2.51758C2.51758 4.42944 5.10181 1.84521 8.28906 1.84521V1.34521V0.845215C4.54952 0.845215 1.51758 3.87716 1.51758 7.6167H2.01758ZM8.28906 1.34521V1.84521H85.4229V1.34521V0.845215H8.28906V1.34521Z" fill="url(#paint1_linear_69_100)" mask="url(#path-3-inside-2_69_100)"/>
<defs>
<linearGradient id="paint0_linear_69_100" x1="53.3662" y1="41.6945" x2="53.3662" y2="0" gradientUnits="userSpaceOnUse">
<stop stop-color="#5C110F"/>
<stop offset="1" stop-color="#7A1C15"/>
</linearGradient>
<linearGradient id="paint1_linear_69_100" x1="2.01758" y1="20.7856" x2="101.547" y2="20.7856" gradientUnits="userSpaceOnUse">
<stop stop-color="#D1AC8B" stop-opacity="0.24"/>
<stop offset="0.822115" stop-color="#6B5847" stop-opacity="0"/>
</linearGradient>
</defs>
</svg>
