<svg preserveAspectRatio="none" width="100%" height="100%" overflow="visible" style="display: block;" viewBox="0 0 1461.03 654" fill="none" xmlns="http://www.w3.org/2000/svg">
<g id="Frame 1046">
<path id="6" d="M723.796 28.0244C747.614 25.6894 770.797 24.1329 799.589 27.2324C837.155 31.2763 865.462 45.4445 892.285 60.7656C919.093 76.0781 944.466 92.5763 976.058 101.14C1028.38 115.322 1111.97 132.484 1189.12 151.869C1227.71 161.566 1264.7 171.823 1295.42 182.553C1326.16 193.289 1350.55 204.475 1363.98 216.006C1406.08 252.164 1429.53 292.462 1429.53 334.903C1429.53 366.615 1409.86 392.961 1378.94 417.32C1348.02 441.678 1305.97 463.966 1261.4 487.585C1232.44 502.932 1218.75 519.746 1201.93 534.987C1185.13 550.216 1165.11 564 1123.36 573.461C1102.35 578.222 1064.47 591.284 1026.05 603.872C987.588 616.473 948.596 628.598 925.274 631.534C908.867 633.6 888.645 632.185 866.378 628.886C844.115 625.587 819.842 620.411 795.341 614.973C746.372 604.102 696.453 592.169 660.038 592.169C627.164 592.169 593.738 596.64 561.044 600.251C528.331 603.864 496.347 606.618 466.278 603.213C405.987 596.385 377.813 586.858 354.14 574.653C330.486 562.458 311.122 547.455 268.759 529.806C263.86 527.765 256.134 526.534 247.101 525.684C238.052 524.832 227.625 524.358 217.293 523.857C206.953 523.356 196.708 522.828 188 521.87C179.268 520.909 172.165 519.523 168.055 517.346C145.739 505.519 125.657 495.984 108.122 486.333C90.6092 476.695 75.7389 466.993 63.939 454.907C40.3759 430.772 28.9593 397.025 33.5113 334.939C35.7835 303.948 45.269 280.829 59.6226 262.828C73.9818 244.821 93.2388 231.905 115.102 221.365C136.97 210.823 161.411 202.674 186.133 194.179C210.843 185.688 235.829 176.852 258.723 164.942C290.082 148.63 309.661 131.832 332.736 116.839C355.819 101.84 382.539 88.5381 428.371 79.0762C469.141 79.0739 495.89 76.2241 514.868 71.9395C533.866 67.6502 545.063 61.9265 554.727 56.207C564.388 50.4895 572.441 44.8287 585.242 40.5752C598.039 36.3231 615.598 33.4756 644.207 33.4756C675.512 33.4756 699.98 30.3594 723.796 28.0244Z" stroke="var(--stroke-0, #E5CEAD)" stroke-opacity="0.33"/>
<path id="5" d="M723.745 3.04102C747.733 0.690584 771.081 -0.87584 800.081 2.24414C837.915 6.31472 866.425 20.5761 893.44 35.998C920.44 51.4114 945.994 68.0182 977.812 76.6377C1030.51 90.9132 1114.7 108.188 1192.39 127.7C1231.26 137.461 1268.52 147.786 1299.46 158.586C1330.42 169.393 1354.98 180.654 1368.51 192.261C1410.91 228.657 1434.53 269.22 1434.53 311.941C1434.53 343.864 1414.72 370.384 1383.58 394.904C1352.44 419.423 1310.09 441.856 1265.2 465.631C1236.03 481.079 1222.24 498.004 1205.3 513.346C1188.38 528.675 1168.22 542.549 1126.17 552.072C1105.01 556.865 1066.85 570.012 1028.16 582.684C989.424 595.368 950.153 607.572 926.664 610.527C910.139 612.607 889.771 611.182 867.344 607.861C844.923 604.541 820.477 599.332 795.801 593.857C746.482 582.915 696.205 570.903 659.53 570.903C626.421 570.903 592.756 575.404 559.828 579.039C526.882 582.676 494.668 585.447 464.383 582.02C403.662 575.147 375.286 565.558 351.443 553.272C327.619 540.996 308.117 525.895 265.451 508.13C260.517 506.076 252.737 504.836 243.639 503.98C234.526 503.123 224.024 502.646 213.618 502.143C203.204 501.638 192.886 501.107 184.115 500.143C175.32 499.176 168.166 497.78 164.026 495.588C141.55 483.683 121.325 474.085 103.665 464.371C86.0266 454.669 71.0493 444.904 59.1646 432.738C35.4319 408.443 23.9336 374.473 28.5181 311.979C30.8067 280.783 40.3612 257.511 54.8179 239.392C69.2802 221.265 88.6741 208.263 110.694 197.654C132.719 187.043 157.335 178.841 182.235 170.289C207.122 161.742 232.285 152.848 255.343 140.86C286.927 124.441 306.644 107.533 329.884 92.4404C353.133 77.3426 380.045 63.953 426.206 54.4287C467.268 54.4264 494.208 51.5578 513.321 47.2451C532.454 42.9277 543.732 37.1662 553.464 31.4092C563.194 25.6542 571.304 19.9564 584.197 15.6748C597.086 11.3944 614.772 8.52832 643.586 8.52832C675.114 8.52831 699.758 5.39134 723.745 3.04102Z" stroke="var(--stroke-0, #E5CEAD)" stroke-opacity="0.33"/>
<path id="4" d="M747.745 18.041C771.733 15.6906 795.081 14.1242 824.081 17.2441C861.915 21.3147 890.425 35.5761 917.44 50.998C944.44 66.4114 969.994 83.0182 1001.81 91.6377C1054.51 105.913 1138.7 123.188 1216.39 142.7C1255.26 152.461 1292.52 162.786 1323.46 173.586C1354.42 184.393 1378.98 195.654 1392.51 207.261C1434.91 243.657 1458.53 284.22 1458.53 326.941C1458.53 358.864 1438.72 385.384 1407.58 409.904C1376.44 434.423 1334.09 456.856 1289.2 480.631C1260.03 496.079 1246.24 513.004 1229.3 528.346C1212.38 543.675 1192.22 557.549 1150.17 567.072C1129.01 571.865 1090.85 585.012 1052.16 597.684C1013.42 610.368 974.153 622.572 950.664 625.527C934.139 627.607 913.771 626.182 891.344 622.861C868.923 619.541 844.477 614.332 819.801 608.857C770.482 597.915 720.205 585.903 683.53 585.903C650.421 585.903 616.756 590.404 583.828 594.039C550.882 597.676 518.668 600.447 488.383 597.02C427.662 590.147 399.286 580.558 375.443 568.272C351.619 555.996 332.117 540.895 289.451 523.13C284.517 521.076 276.737 519.836 267.639 518.98C258.526 518.123 248.024 517.646 237.618 517.143C227.204 516.638 216.886 516.107 208.115 515.143C199.32 514.176 192.166 512.78 188.026 510.588C165.55 498.683 145.325 489.085 127.665 479.371C110.027 469.669 95.0493 459.904 83.1646 447.738C59.4319 423.443 47.9336 389.473 52.5181 326.979C54.8067 295.783 64.3612 272.511 78.8179 254.392C93.2802 236.265 112.674 223.263 134.694 212.654C156.719 202.043 181.335 193.841 206.235 185.289C231.122 176.742 256.285 167.848 279.343 155.86C310.927 139.441 330.644 122.533 353.884 107.44C377.133 92.3426 404.045 78.953 450.206 69.4287C491.268 69.4264 518.208 66.5578 537.321 62.2451C556.454 57.9277 567.732 52.1662 577.464 46.4092C587.194 40.6542 595.304 34.9564 608.197 30.6748C621.086 26.3944 638.772 23.5283 667.586 23.5283C699.114 23.5283 723.758 20.3913 747.745 18.041Z" stroke="var(--stroke-0, #E5CEAD)" stroke-opacity="0.33"/>
<path id="3" d="M707.745 28.041C731.733 25.6906 755.081 24.1242 784.081 27.2441C821.915 31.3147 850.425 45.5761 877.44 60.998C904.44 76.4114 929.994 93.0182 961.812 101.638C1014.51 115.913 1098.7 133.188 1176.39 152.7C1215.26 162.461 1252.52 172.786 1283.46 183.586C1314.42 194.393 1338.98 205.654 1352.51 217.261C1394.91 253.657 1418.53 294.22 1418.53 336.941C1418.53 368.864 1398.72 395.384 1367.58 419.904C1336.44 444.423 1294.09 466.856 1249.2 490.631C1220.03 506.079 1206.24 523.004 1189.3 538.346C1172.38 553.675 1152.22 567.549 1110.17 577.072C1089.01 581.865 1050.85 595.012 1012.16 607.684C973.424 620.368 934.153 632.572 910.664 635.527C894.139 637.607 873.771 636.182 851.344 632.861C828.923 629.541 804.477 624.332 779.801 618.857C730.482 607.915 680.205 595.903 643.53 595.903C610.421 595.903 576.756 600.404 543.828 604.039C510.882 607.676 478.668 610.447 448.383 607.02C387.662 600.147 359.286 590.558 335.443 578.272C311.619 565.996 292.117 550.895 249.451 533.13C244.517 531.076 236.737 529.836 227.639 528.98C218.526 528.123 208.024 527.646 197.618 527.143C187.204 526.638 176.886 526.107 168.115 525.143C159.32 524.176 152.166 522.78 148.026 520.588C125.55 508.683 105.325 499.085 87.6646 489.371C70.0266 479.669 55.0493 469.904 43.1646 457.738C19.4319 433.443 7.93355 399.473 12.5181 336.979C14.8067 305.783 24.3612 282.511 38.8179 264.392C53.2802 246.265 72.6741 233.263 94.6939 222.654C116.719 212.043 141.335 203.841 166.235 195.289C191.122 186.742 216.285 177.848 239.343 165.86C270.927 149.441 290.644 132.533 313.884 117.44C337.133 102.343 364.045 88.953 410.206 79.4287C451.268 79.4264 478.208 76.5578 497.321 72.2451C516.454 67.9277 527.732 62.1662 537.464 56.4092C547.194 50.6542 555.304 44.9564 568.197 40.6748C581.086 36.3944 598.772 33.5283 627.586 33.5283C659.114 33.5283 683.758 30.3913 707.745 28.041Z" stroke="var(--stroke-0, #E5CEAD)" stroke-opacity="0.33"/>
<path id="2" d="M747.745 45.041C771.733 42.6906 795.081 41.1242 824.081 44.2441C861.915 48.3147 890.425 62.5761 917.44 77.998C944.44 93.4114 969.994 110.018 1001.81 118.638C1054.51 132.913 1138.7 150.188 1216.39 169.7C1255.26 179.461 1292.52 189.786 1323.46 200.586C1354.42 211.393 1378.98 222.654 1392.51 234.261C1434.91 270.657 1458.53 311.22 1458.53 353.941C1458.53 385.864 1438.72 412.384 1407.58 436.904C1376.44 461.423 1334.09 483.856 1289.2 507.631C1260.03 523.079 1246.24 540.004 1229.3 555.346C1212.38 570.675 1192.22 584.549 1150.17 594.072C1129.01 598.865 1090.85 612.012 1052.16 624.684C1013.42 637.368 974.153 649.572 950.664 652.527C934.139 654.607 913.771 653.182 891.344 649.861C868.923 646.541 844.477 641.332 819.801 635.857C770.482 624.915 720.205 612.903 683.53 612.903C650.421 612.903 616.756 617.404 583.828 621.039C550.882 624.676 518.668 627.447 488.383 624.02C427.662 617.147 399.286 607.558 375.443 595.272C351.619 582.996 332.117 567.895 289.451 550.13C284.517 548.076 276.737 546.836 267.639 545.98C258.526 545.123 248.024 544.646 237.618 544.143C227.204 543.638 216.886 543.107 208.115 542.143C199.32 541.176 192.166 539.78 188.026 537.588C165.55 525.683 145.325 516.085 127.665 506.371C110.027 496.669 95.0493 486.904 83.1646 474.738C59.4319 450.443 47.9336 416.473 52.5181 353.979C54.8067 322.783 64.3612 299.511 78.8179 281.392C93.2802 263.265 112.674 250.263 134.694 239.654C156.719 229.043 181.335 220.841 206.235 212.289C231.122 203.742 256.285 194.848 279.343 182.86C310.927 166.441 330.644 149.533 353.884 134.44C377.133 119.343 404.045 105.953 450.206 96.4287C491.268 96.4264 518.208 93.5578 537.321 89.2451C556.454 84.9277 567.732 79.1662 577.464 73.4092C587.194 67.6542 595.304 61.9564 608.197 57.6748C621.086 53.3944 638.772 50.5283 667.586 50.5283C699.114 50.5283 723.758 47.3913 747.745 45.041Z" stroke="var(--stroke-0, #E5CEAD)" stroke-opacity="0.33"/>
<g id="1" filter="url(#filter0_n_0_4)">
<path fill-rule="evenodd" clip-rule="evenodd" d="M3.02701 331C12.527 201.5 142.737 203.04 238.027 153.5C303.346 119.542 319.292 83.7411 415.027 64C585.027 64 520.633 16.5 640.027 16.5C705.216 16.5 741.905 3.53146 802.027 10C880.547 18.448 920.338 69.2044 986.027 87C1095.11 116.551 1334.23 158.434 1390.53 206.757C1434.47 244.477 1459.03 286.584 1459.03 331C1459.03 397.545 1376.41 441.304 1283.54 490.493L1283.53 490.5C1223.32 522.391 1226.74 560.249 1139.53 580C1095.79 589.905 981.761 634.368 933.027 640.5C864.344 649.142 732.287 599.5 656.527 599.5C588.076 599.5 517.332 618.108 454.527 611C328.774 596.767 336.808 571.259 248.527 534.5C228.427 526.131 161.055 530.784 143.527 521.5C50.6522 472.308 -6.47299 460.5 3.02701 331ZM216.027 184.5C136.028 173.5 9.52768 283.001 34.0273 329.501C58.5269 376.001 4.92424 426.362 54.0268 452.001C77.9391 464.486 107.736 508.55 189.381 505.525C271.027 502.5 393.592 546.992 466.527 577C539.462 607.007 536.527 543.5 585.027 577C633.527 610.5 696.527 543.5 734.527 577C772.527 610.5 938.001 644.429 969.027 610.5C1000.05 576.571 1046.47 541.427 1106.75 559.378C1167.03 577.328 1252.03 505.525 1274.03 467C1296.03 428.475 1350.18 425.215 1367.53 372C1394.38 289.611 1442.03 402.5 1437.03 305.5C1432.03 208.5 1358.53 266 1314.03 200C1262.17 155.516 1145.03 131.5 1013.53 122C953.024 105.618 907.848 41.7769 835.527 34.0001C780.151 28.0455 704.527 65.0005 646.684 40.6483C588.841 16.2962 548.027 63.0005 439.448 84.3744C330.868 105.748 296.027 195.5 216.027 184.5Z" fill="url(#paint0_linear_0_4)" fill-opacity="0.46"/>
<path d="M722.83 9.8288C747.69 7.39282 771.972 5.76052 802.133 9.00555C841.602 13.252 871.326 28.1372 899.335 44.1266C927.374 60.1334 953.601 77.1796 986.289 86.0349C1040.85 100.816 1127.76 118.639 1208.31 138.869C1248.55 148.974 1287.16 159.671 1319.24 170.87C1351.28 182.054 1376.95 193.783 1391.18 205.998C1435.25 243.825 1460.03 286.186 1460.03 331C1460.03 364.736 1439.07 392.57 1406.73 418.041C1374.38 443.515 1330.42 466.796 1284.01 491.377L1284.01 491.378L1283.99 491.384L1283.99 491.383C1254.03 507.252 1239.99 524.54 1222.32 540.544C1204.63 556.572 1183.53 571.059 1139.75 580.975C1117.94 585.914 1078.58 599.48 1038.46 612.615C998.429 625.725 957.635 638.411 933.152 641.492C915.845 643.67 894.606 642.172 871.355 638.729C848.094 635.285 822.749 629.883 797.214 624.217C746.082 612.873 694.267 600.5 656.527 600.5C622.372 600.5 587.647 605.142 553.519 608.91C519.427 612.673 485.94 615.562 454.415 611.994C391.46 604.869 361.903 594.91 337.017 582.087C312.094 569.244 292.261 553.794 248.142 535.424C243.273 533.396 235.433 532.125 226.012 531.239C216.624 530.356 205.797 529.864 195.014 529.341C184.247 528.82 173.523 528.268 164.392 527.264C155.308 526.266 147.631 524.805 143.059 522.383C119.918 510.127 98.8268 500.109 80.5748 490.069C62.2776 480.005 46.6256 469.813 34.1715 457.064C9.19002 431.491 -2.73125 395.828 2.02986 330.926C4.41805 298.373 14.4011 273.99 29.5719 254.975C44.7316 235.975 65.0208 222.398 87.9215 211.364C110.812 200.335 136.384 191.816 162.119 182.977C187.879 174.13 213.818 164.959 237.566 152.613C270.179 135.658 290.326 118.328 314.577 102.58C338.793 86.8535 366.829 72.9173 414.825 63.0202L414.925 62.9997H415.027C457.487 62.9997 485.257 60.0329 504.892 55.6022C524.501 51.1775 536.023 45.288 545.996 39.3893C555.975 33.4867 564.553 27.4687 578.092 22.9724C591.639 18.4735 610.118 15.4997 640.027 15.4997C672.56 15.4997 697.967 12.265 722.83 9.8288ZM835.42 34.9948C821.699 33.5195 806.685 34.6985 790.933 36.9411C775.158 39.187 758.778 42.4753 742.193 45.2097C709.136 50.6599 675.508 53.8684 646.295 41.57C617.739 29.5478 593.386 35.0193 562.434 46.3034C531.495 57.5828 494.031 74.6485 439.641 85.3552C385.602 95.9928 349.915 123.634 317.612 147.383C285.356 171.098 256.338 191.052 215.891 185.491C196.133 182.774 173.414 187.492 150.778 196.9C128.154 206.303 105.691 220.358 86.4762 236.21C67.2554 252.066 51.3308 269.682 41.7437 286.182C32.1239 302.739 29.0385 317.888 34.9117 329.035C47.3653 352.672 39.951 377.322 35.7828 398.764C33.6828 409.567 32.3984 419.523 34.6021 428.341C36.7854 437.076 42.4282 444.816 54.4898 451.114C78.8452 463.831 108.045 507.539 189.344 504.526C230.331 503.007 281.509 513.411 331.5 527.915C381.511 542.424 430.423 561.064 466.908 576.075C485.027 583.53 498.348 585.142 508.879 583.955C519.414 582.767 527.257 578.772 534.459 574.814C541.615 570.881 548.274 566.89 556.207 566.091C564.208 565.286 573.354 567.722 585.595 576.177C609.38 592.606 636.751 584.453 663.414 576.047C676.659 571.87 689.729 567.64 701.87 566.582C714.058 565.519 725.422 567.641 735.188 576.25C744.533 584.488 761.841 592.839 783.162 600.193C804.446 607.535 829.608 613.843 854.558 618.049C879.513 622.256 904.216 624.354 924.588 623.292C934.775 622.761 943.849 621.441 951.316 619.217C958.794 616.99 964.581 613.88 968.289 609.825C999.372 575.833 1046.17 540.295 1107.04 558.42C1136.73 567.263 1172.72 554.015 1204.2 533.529C1235.64 513.065 1262.26 485.59 1273.16 466.504C1284.31 446.981 1303.62 436.384 1321.97 424.176C1340.38 411.926 1358.01 397.966 1366.58 371.69C1373.32 351 1381.48 342.201 1390.12 339.536C1398.69 336.896 1407.35 340.432 1414.59 343.299C1418.28 344.762 1421.58 346.044 1424.46 346.454C1427.28 346.856 1429.54 346.397 1431.33 344.533C1433.2 342.594 1434.72 338.988 1435.59 332.691C1436.45 326.425 1436.65 317.651 1436.03 305.551C1434.78 281.416 1429.29 267.083 1421.21 258.041C1413.13 248.996 1402.34 245.086 1390.1 242.096C1365.72 236.14 1335.78 233.955 1313.28 200.674C1287.52 178.63 1245.5 161.577 1193.41 148.852C1141.27 136.118 1079.17 127.745 1013.45 122.998L1013.36 122.99L1013.27 122.966C982.808 114.719 956.214 94.527 928.396 75.6003C900.509 56.6269 871.313 38.8545 835.42 34.9948Z" stroke="var(--stroke-0, #F7E392)" stroke-opacity="0.22" stroke-width="2"/>
</g>
</g>
<defs>
<filter id="filter0_n_0_4" x="0" y="6.19212" width="1461.03" height="637.318" filterUnits="userSpaceOnUse" color-interpolation-filters="sRGB">
<feFlood flood-opacity="0" result="BackgroundImageFix"/>
<feBlend mode="normal" in="SourceGraphic" in2="BackgroundImageFix" result="shape"/>
<feTurbulence type="fractalNoise" baseFrequency="2 2" stitchTiles="stitch" numOctaves="3" result="noise" seed="2623" />
<feColorMatrix in="noise" type="luminanceToAlpha" result="alphaNoise" />
<feComponentTransfer in="alphaNoise" result="coloredNoise1">
<feFuncA type="discrete" tableValues="1 1 1 1 1 1 1 1 1 1 1 1 1 1 1 1 1 1 1 1 1 1 1 1 1 1 1 1 1 1 1 1 1 1 1 1 1 1 1 1 1 1 1 1 1 1 1 1 1 1 1 0 0 0 0 0 0 0 0 0 0 0 0 0 0 0 0 0 0 0 0 0 0 0 0 0 0 0 0 0 0 0 0 0 0 0 0 0 0 0 0 0 0 0 0 0 0 0 0 0 "/>
</feComponentTransfer>
<feComposite operator="in" in2="shape" in="coloredNoise1" result="noise1Clipped" />
<feFlood flood-color="rgba(0, 0, 0, 0.25)" result="color1Flood" />
<feComposite operator="in" in2="noise1Clipped" in="color1Flood" result="color1" />
<feMerge result="effect1_noise_0_4">
<feMergeNode in="shape" />
<feMergeNode in="color1" />
</feMerge>
</filter>
<linearGradient id="paint0_linear_0_4" x1="230.027" y1="96" x2="1215.03" y2="530" gradientUnits="userSpaceOnUse">
<stop stop-color="#F7CD92"/>
<stop offset="0.280276" stop-color="#918556"/>
<stop offset="0.451923" stop-color="#F0BD76"/>
<stop offset="0.567308" stop-color="#D9C46E"/>
<stop offset="0.711538" stop-color="#918556"/>
<stop offset="0.9999" stop-color="#F3DD84"/>
</linearGradient>
</defs>
</svg>
