<svg preserveAspectRatio="none" width="100%" height="100%" overflow="visible" style="display: block;" viewBox="0 0 106.732 41.6943" fill="none" xmlns="http://www.w3.org/2000/svg">
<g id="Group 68">
<g id="Union">
<mask id="path-1-inside-1_0_4" fill="white">
<path d="M89.4414 0C92.9399 0 95.8129 2.67165 96.1348 6.08594C99.176 6.406 101.546 8.97845 101.546 12.1045V14.2197L106.582 20.4238C106.782 20.6708 106.783 21.0245 106.582 21.2715L101.546 27.4746V30.2617C101.546 33.4219 99.1241 36.0142 96.0352 36.2881C95.4222 39.3707 92.7041 41.6943 89.4414 41.6943H6.72461C3.01072 41.6942 6.62286e-05 38.6836 0 34.9697V6.72461C0.00017064 3.01079 3.01079 0.000169944 6.72461 0H89.4414Z"/>
</mask>
<path d="M89.4414 0C92.9399 0 95.8129 2.67165 96.1348 6.08594C99.176 6.406 101.546 8.97845 101.546 12.1045V14.2197L106.582 20.4238C106.782 20.6708 106.783 21.0245 106.582 21.2715L101.546 27.4746V30.2617C101.546 33.4219 99.1241 36.0142 96.0352 36.2881C95.4222 39.3707 92.7041 41.6943 89.4414 41.6943H6.72461C3.01072 41.6942 6.62286e-05 38.6836 0 34.9697V6.72461C0.00017064 3.01079 3.01079 0.000169944 6.72461 0H89.4414Z" fill="url(#paint0_linear_0_4)"/>
<path d="M96.1348 6.08594L95.1392 6.1798L95.216 6.99477L96.0301 7.08045L96.1348 6.08594ZM101.546 12.1045H102.546V12.1044L101.546 12.1045ZM101.546 14.2197H100.546V14.5745L100.769 14.85L101.546 14.2197ZM106.582 20.4238L107.359 19.7938L107.358 19.7936L106.582 20.4238ZM106.582 21.2715L105.806 20.6412L105.806 20.6412L106.582 21.2715ZM101.546 27.4746L100.77 26.8443L100.546 27.1198V27.4746H101.546ZM96.0352 36.2881L95.9468 35.292L95.2005 35.3582L95.0544 36.0931L96.0352 36.2881ZM6.72461 41.6943L6.72456 42.6943H6.72461V41.6943ZM0 34.9697H-1V34.9697L0 34.9697ZM0 6.72461L-1 6.72456V6.72461H0ZM6.72461 0V-1H6.72456L6.72461 0ZM89.4414 0V1C92.4188 1 94.8652 3.27395 95.1392 6.1798L96.1348 6.08594L97.1303 5.99207C96.7605 2.06934 93.461 -1 89.4414 -1V0ZM96.1348 6.08594L96.0301 7.08045C98.5677 7.3475 100.546 9.49554 100.546 12.1046L101.546 12.1045L102.546 12.1044C102.546 8.46136 99.7844 5.4645 96.2394 5.09143L96.1348 6.08594ZM101.546 12.1045H100.546V14.2197H101.546H102.546V12.1045H101.546ZM101.546 14.2197L100.769 14.85L105.806 21.0541L106.582 20.4238L107.358 19.7936L102.322 13.5895L101.546 14.2197ZM106.582 20.4238L105.805 21.0538C105.708 20.9339 105.708 20.7618 105.806 20.6412L106.582 21.2715L107.358 21.9018C107.857 21.2873 107.857 20.4077 107.359 19.7938L106.582 20.4238ZM106.582 21.2715L105.806 20.6412L100.77 26.8443L101.546 27.4746L102.322 28.1049L107.358 21.9018L106.582 21.2715ZM101.546 27.4746H100.546V30.2617H101.546H102.546V27.4746H101.546ZM101.546 30.2617H100.546C100.546 32.8988 98.5248 35.0634 95.9468 35.292L96.0352 36.2881L96.1235 37.2842C99.7235 36.965 102.546 33.945 102.546 30.2617H101.546ZM96.0352 36.2881L95.0544 36.0931C94.5326 38.7172 92.2174 40.6943 89.4414 40.6943V41.6943V42.6943C93.1908 42.6943 96.3118 40.0242 97.016 36.4831L96.0352 36.2881ZM89.4414 41.6943V40.6943H6.72461V41.6943V42.6943H89.4414V41.6943ZM6.72461 41.6943L6.72466 40.6943C3.56299 40.6942 1.00006 38.1313 1 34.9697L0 34.9697L-1 34.9697C-0.999924 39.236 2.45846 42.6941 6.72456 42.6943L6.72461 41.6943ZM0 34.9697H1V6.72461H0H-1V34.9697H0ZM0 6.72461L1 6.72466C1.00015 3.56308 3.56308 1.00014 6.72466 1L6.72461 0L6.72456 -1C2.45849 -0.999805 -0.999804 2.45849 -1 6.72456L0 6.72461ZM6.72461 0V1H89.4414V0V-1H6.72461V0Z" fill="var(--stroke-0, #8D1C14)" mask="url(#path-1-inside-1_0_4)"/>
</g>
<g id="Union_2">
<mask id="path-3-inside-2_0_4" fill="white">
<path d="M85.4228 1.34498C88.6848 1.34517 91.3636 3.83624 91.664 7.01979C94.5001 7.31827 96.7099 9.71786 96.7099 12.6331V14.6057L101.406 20.3899C101.593 20.6202 101.593 20.9506 101.406 21.1809L96.7099 26.9641V29.5647C96.7098 32.5112 94.4521 34.9279 91.5722 35.1839C91.0007 38.0584 88.4651 40.2257 85.4228 40.2258H8.28896C4.82556 40.2258 2.01748 37.4178 2.01748 33.9544V7.61647C2.01748 4.15307 4.82556 1.34498 8.28896 1.34498H85.4228Z"/>
</mask>
<path d="M85.4228 1.34498L85.4228 0.844985H85.4228V1.34498ZM91.664 7.01979L91.1662 7.06675L91.2046 7.47421L91.6116 7.51704L91.664 7.01979ZM96.7099 14.6057H96.2099V14.7831L96.3217 14.9209L96.7099 14.6057ZM101.406 20.3899L101.794 20.0748V20.0747L101.406 20.3899ZM101.406 21.1809L101.794 21.4961L101.794 21.4961L101.406 21.1809ZM96.7099 26.9641L96.3217 26.6489L96.2099 26.7867V26.9641H96.7099ZM96.7099 29.5647L97.2099 29.5647V29.5647H96.7099ZM91.5722 35.1839L91.5279 34.6858L91.1548 34.719L91.0818 35.0864L91.5722 35.1839ZM85.4228 40.2258V40.7258H85.4228L85.4228 40.2258ZM85.4228 1.34498L85.4227 1.84498C88.4243 1.84516 90.8898 4.1374 91.1662 7.06675L91.664 7.01979L92.1617 6.97283C91.8374 3.53508 88.9454 0.845186 85.4228 0.844985L85.4228 1.34498ZM91.664 7.01979L91.6116 7.51704C94.1958 7.78901 96.2099 9.97632 96.2099 12.6331H96.7099H97.2099C97.2099 9.45941 94.8043 6.84752 91.7163 6.52254L91.664 7.01979ZM96.7099 12.6331H96.2099V14.6057H96.7099H97.2099V12.6331H96.7099ZM96.7099 14.6057L96.3217 14.9209L101.018 20.7051L101.406 20.3899L101.794 20.0747L97.098 14.2906L96.7099 14.6057ZM101.406 20.3899L101.018 20.7051C101.056 20.7517 101.056 20.8191 101.018 20.8658L101.406 21.1809L101.794 21.4961C102.13 21.0821 102.13 20.4887 101.794 20.0748L101.406 20.3899ZM101.406 21.1809L101.018 20.8657L96.3217 26.6489L96.7099 26.9641L97.098 27.2793L101.794 21.4961L101.406 21.1809ZM96.7099 26.9641H96.2099V29.5647H96.7099H97.2099V26.9641H96.7099ZM96.7099 29.5647L96.2099 29.5647C96.2098 32.2496 94.1524 34.4526 91.5279 34.6858L91.5722 35.1839L91.6164 35.6819C94.7518 35.4033 97.2098 32.7727 97.2099 29.5647L96.7099 29.5647ZM91.5722 35.1839L91.0818 35.0864C90.5559 37.7316 88.2218 39.7257 85.4227 39.7258L85.4228 40.2258L85.4228 40.7258C88.7085 40.7257 91.4455 38.3852 92.0626 35.2813L91.5722 35.1839ZM85.4228 40.2258V39.7258H8.28896V40.2258V40.7258H85.4228V40.2258ZM8.28896 40.2258V39.7258C5.10171 39.7258 2.51748 37.1416 2.51748 33.9544H2.01748H1.51748C1.51748 37.6939 4.54942 40.7258 8.28896 40.7258V40.2258ZM2.01748 33.9544H2.51748V7.61647H2.01748H1.51748V33.9544H2.01748ZM2.01748 7.61647H2.51748C2.51748 4.42921 5.10171 1.84498 8.28896 1.84498V1.34498V0.844985C4.54942 0.844985 1.51748 3.87693 1.51748 7.61647H2.01748ZM8.28896 1.34498V1.84498H85.4228V1.34498V0.844985H8.28896V1.34498Z" fill="url(#paint1_linear_0_4)" mask="url(#path-3-inside-2_0_4)"/>
</g>
</g>
<defs>
<linearGradient id="paint0_linear_0_4" x1="53.3662" y1="41.6945" x2="53.3662" y2="0" gradientUnits="userSpaceOnUse">
<stop stop-color="#5C110F"/>
<stop offset="1" stop-color="#7A1C15"/>
</linearGradient>
<linearGradient id="paint1_linear_0_4" x1="2.01748" y1="20.7854" x2="101.546" y2="20.7854" gradientUnits="userSpaceOnUse">
<stop stop-color="#D1AC8B" stop-opacity="0.24"/>
<stop offset="0.822115" stop-color="#6B5847" stop-opacity="0"/>
</linearGradient>
</defs>
</svg>
