<svg preserveAspectRatio="none" width="100%" height="100%" overflow="visible" style="display: block;" viewBox="0 0 211.298 199.11" fill="none" xmlns="http://www.w3.org/2000/svg">
<g id="&#228;&#186;&#145;5">
<path id="Vector" d="M106.187 81.9219L136.522 81.8694C142.292 81.8432 148.344 81.324 154.075 82.0278C155.848 82.2454 157.721 82.7693 159.354 83.7841C160.866 84.7238 161.727 86.6274 162.227 88.7644C162.788 91.162 162.945 94.6619 162.004 96.9153C158.379 105.592 146.591 100.699 140.722 103.046C139.192 103.658 137.339 104.803 136.608 106.902C136.144 108.234 136.302 109.709 136.662 111.047C137.254 113.249 138.191 115.29 139.818 116.178C143.537 118.209 150.325 116.975 154.343 116.952C161.311 116.913 203.999 115.258 208.197 118.324C209.664 119.395 210.664 121.554 211.074 123.747C211.502 126.029 211.334 128.497 210.422 130.517C206.727 138.709 193.67 132.454 187.875 134.962C186.556 135.532 185.755 136.617 185.17 138.346C184.623 139.963 184.729 140.808 185.109 142.395C190.095 149.747 210.21 139.377 205.4 160.031C203.968 166.182 196.319 165.6 192.463 165.611C186.264 165.621 179.79 165.642 173.457 165.663L112.625 165.957C104.064 166.03 95.3546 165.841 86.7911 166.161C84.8787 166.229 83.0671 169.628 82.8671 172.192C82.7494 173.781 83.107 175.365 83.8549 176.576C88.3199 183.839 103.644 173.45 109.466 184.112C110.303 187.069 110.464 190.363 109.528 193.315C108.903 195.292 107.645 197.332 106.129 197.982C101.53 199.949 47.0523 198.932 40.015 198.014C39.0539 197.888 38.1966 197.626 37.3578 196.928C35.5199 195.392 34.0753 192.796 33.6974 189.828C33.3676 187.164 33.8632 184.437 35.0611 182.313C37.6593 177.777 39.5333 179.088 43.3697 178.584C48.398 177.918 58.1978 181.128 61.9838 175.391C63.5694 172.989 62.6892 167.042 60.0139 165.847C56.5381 164.289 52.5502 164.656 48.8981 164.341C35.3804 163.109 21.8668 163.791 8.34114 163.707C6.75064 163.55 5.10449 162.49 3.80991 161.326C0.034638 157.996 -1.28848 148.614 1.46402 143.692C4.98681 137.389 11.3751 138.327 16.3576 138.239C24.5669 138.094 32.892 138.792 41.0475 137.997C43.7649 137.409 47.9431 135.914 46.9282 130.841C44.9196 120.798 51.4264 116.691 57.4586 117.107C59.6605 117.259 62.2241 117.18 64.4474 117.172L91.1855 117.092C96.0953 117.093 107.882 119.352 108.964 111.331C110.808 98.3066 94.1104 104.551 88.6309 102.842C82.2854 100.863 80.5885 98.0208 81.3653 88.6071C85.9533 78.9327 98.2502 82.2108 106.187 81.9219ZM166.434 145.574C171.532 142.225 169.685 135.641 165.71 135.037C159.541 134.099 150.532 134.399 144.331 134.684C136.591 140.724 143.3 146.447 149.802 145.835C154.891 145.356 161.254 145.656 166.434 145.574Z" fill="url(#paint0_linear_0_3167)" fill-opacity="0.11"/>
<path id="Vector_2" d="M185.975 0.905089C189.546 -1.38659 193.772 0.825371 195.38 5.8272C196.988 10.8301 195.36 16.7035 191.757 18.8955C188.204 21.0613 184.065 18.8274 182.48 13.8927C180.894 8.95797 182.453 3.1632 185.975 0.905089Z" fill="url(#paint1_linear_0_3167)" fill-opacity="0.11"/>
</g>
<defs>
<linearGradient id="paint0_linear_0_3167" x1="105.649" y1="81.6121" x2="105.649" y2="199.11" gradientUnits="userSpaceOnUse">
<stop stop-color="#CAAB7E"/>
<stop offset="1" stop-color="#9A6B67"/>
</linearGradient>
<linearGradient id="paint1_linear_0_3167" x1="188.93" y1="3.80533e-08" x2="188.93" y2="19.7225" gradientUnits="userSpaceOnUse">
<stop stop-color="#CAAB7E"/>
<stop offset="1" stop-color="#9A6B67"/>
</linearGradient>
</defs>
</svg>
