<svg preserveAspectRatio="none" width="100%" height="100%" overflow="visible" style="display: block;" viewBox="0 0 184 93.985" fill="none" xmlns="http://www.w3.org/2000/svg">
<g id="&#228;&#186;&#145;2">
<path id="Vector" d="M35.7332 32.4453C49.0427 31.8909 62.1708 32.6203 75.4694 32.9824L120.672 33.6981C107.828 71.6461 169.182 34.6054 158.038 66.2171C155.882 72.3473 125.778 67.8364 120.849 69.0148C119.848 69.2533 114.484 69.3834 113.333 72.2461C108.621 87.6873 125.659 78.4848 129.919 83.7258C135.445 96.2754 118.739 93.8392 114.276 93.7163C78.6571 92.9718 42.8757 94.3959 7.27161 93.1597C-2.16498 92.8272 -3.43643 71.2774 9.56778 71.0027C13.9632 70.916 20.9672 70.6123 25.6098 70.6196C35.6109 70.7569 45.6125 70.6919 55.6125 70.4245C58.8427 67.3738 61.0336 64.5256 59.4486 58.2942C58.4544 55.0989 55.6482 54.029 53.5153 53.4652C46.2676 51.5495 24.6287 57.9399 30.4095 38.2481C31.4151 34.8201 33.4738 33.722 35.7332 32.4453Z" fill="url(#paint0_linear_0_1069)" fill-opacity="0.11"/>
<path id="Vector_2" d="M76.0815 0.635294C85.9659 0.0801052 140.955 -0.908833 146.211 1.86494C148.652 3.15315 150.601 6.04475 151.487 9.43516C152.467 13.1465 152.519 18.2098 151.15 21.7447C149.569 25.8255 146.916 27.575 143.925 28.9506C141.929 28.9774 139.597 28.8726 137.648 29.0771C122.72 30.6408 108.098 30.5302 93.1499 30.6082C91.1699 29.0627 94.0828 25.1966 91.4394 19.8948C86.0333 14.1398 76.2577 23.1747 71.8313 12.5986C69.6014 7.26865 72.728 3.06352 76.0815 0.635294Z" fill="url(#paint1_linear_0_1069)" fill-opacity="0.11"/>
<path id="Vector_3" d="M173.852 52.5331C184.69 51.8319 187.386 64.2875 179.31 69.1165C168.824 69.89 164.849 59.6971 173.852 52.5331Z" fill="url(#paint2_linear_0_1069)" fill-opacity="0.11"/>
</g>
<defs>
<linearGradient id="paint0_linear_0_1069" x1="79.6994" y1="32.2442" x2="79.6994" y2="93.985" gradientUnits="userSpaceOnUse">
<stop stop-color="#CAAB7E"/>
<stop offset="1" stop-color="#9A6B67"/>
</linearGradient>
<linearGradient id="paint1_linear_0_1069" x1="111.641" y1="9.92417e-05" x2="111.641" y2="30.6082" gradientUnits="userSpaceOnUse">
<stop stop-color="#CAAB7E"/>
<stop offset="1" stop-color="#9A6B67"/>
</linearGradient>
<linearGradient id="paint2_linear_0_1069" x1="176.428" y1="52.5047" x2="176.428" y2="69.158" gradientUnits="userSpaceOnUse">
<stop stop-color="#CAAB7E"/>
<stop offset="1" stop-color="#9A6B67"/>
</linearGradient>
</defs>
</svg>
