<svg preserveAspectRatio="none" width="100%" height="100%" overflow="visible" style="display: block;" viewBox="0 0 240.362 82.7489" fill="none" xmlns="http://www.w3.org/2000/svg">
<g id="&#228;&#186;&#145;8">
<path id="Vector" d="M48.6503 0.0912494L132.562 0.10604C147.629 0.0251807 162.795 -0.231202 177.833 0.541894C183.186 0.817014 187.824 4.6894 188.17 12.7389C188.34 16.4919 187.378 20.174 185.512 22.8877C181.92 28.1673 176.617 27.4543 171.802 27.5007C156.976 27.6456 142.114 26.8893 127.302 27.6673C125.202 29.3703 124.417 29.9846 122.706 32.2467C120.903 34.6272 119.539 38.7086 119.758 41.7645C121.745 69.454 185.696 43.997 198.005 60.5003C199.575 62.5996 200.275 64.6892 200.352 67.4394C200.451 70.9114 199.122 75.4997 197.496 77.7865C192.639 84.5954 173.492 82.4378 166.203 82.3777L60.7447 82.0355C43.9754 82.0335 27.182 82.3787 10.4147 81.7811C4.32436 81.5711 1.27917 79.0516 0.109739 70.6757C-0.723851 64.702 3.33238 55.6339 7.50245 55.3666C23.8448 54.2908 41.621 55.0974 57.9145 54.8529C65.2846 54.7415 85.6012 57.8743 88.9808 48.9107C102.938 11.8879 47.8336 36.3647 38.8105 22.9459C34.5881 16.6665 35.351 9.63859 39.0466 4.65981C42.2233 0.438349 44.6774 0.449201 48.6503 0.0912494Z" fill="url(#paint0_linear_0_3189)" fill-opacity="0.11"/>
<path id="Vector_2" d="M217.88 55.0936C221.253 54.8746 226.654 54.1577 229.843 55.2612C242.959 59.7992 243.899 73.9664 232.162 82.0208C224.654 82.3984 207.098 85.3518 210.379 66.5865C211.51 60.1118 213.914 57.8842 217.88 55.0936Z" fill="url(#paint1_linear_0_3189)" fill-opacity="0.11"/>
</g>
<defs>
<linearGradient id="paint0_linear_0_3189" x1="100.179" y1="-9.37871e-09" x2="100.179" y2="82.7489" gradientUnits="userSpaceOnUse">
<stop stop-color="#CAAB7E"/>
<stop offset="1" stop-color="#9A6B67"/>
</linearGradient>
<linearGradient id="paint1_linear_0_3189" x1="225.168" y1="54.6622" x2="225.168" y2="82.4118" gradientUnits="userSpaceOnUse">
<stop stop-color="#CAAB7E"/>
<stop offset="1" stop-color="#9A6B67"/>
</linearGradient>
</defs>
</svg>
