<svg preserveAspectRatio="none" width="100%" height="100%" overflow="visible" style="display: block;" viewBox="0 0 193 144" fill="none" xmlns="http://www.w3.org/2000/svg">
<path id="&#228;&#186;&#145;3" d="M53.1254 0.433399C80.2312 -0.802794 108.354 1.04353 135.524 0.607352C139.576 0.542457 144.418 2.4478 144.827 8.78355C146.352 32.4074 122.144 13.8039 115.745 26.1142C114.584 28.3541 114.129 31.16 114.492 33.8776C115.868 44.0933 127.15 41.582 132.891 41.5975L170.167 41.6464C179.688 41.6921 190.695 37.217 193 53.7232C192.453 56.5445 191.842 59.0121 190.34 61.2079C189.082 63.0362 187.412 64.2138 185.608 64.5468C183.407 64.9575 177.819 64.7649 175.273 64.7596L157.998 64.8537C133.835 65.0553 107.807 64.3787 83.931 65.225C79.9523 68.4054 79.7726 69.8395 78.4311 75.7061C78.5152 76.113 78.6069 76.5183 78.6986 76.9226C79.4363 80.0822 80.9383 83.6812 83.3118 84.4695C87.73 85.9371 94.7244 85.3616 99.4407 85.3302L133.04 85.2679C138.876 85.2525 144.934 84.9934 150.759 85.3381C156.779 85.6945 158.407 89.2228 159.859 96.8245C157.153 113.791 147.464 107.318 138.246 109.04C133.648 109.898 130.518 117.696 131.981 122.185C136.369 135.645 156.045 124.845 163.926 130.928L164.312 131.229C166.41 136.12 165.871 142.902 161.113 143.561C157.505 144.062 153.228 143.826 149.555 143.847L125.025 143.85L96.2646 143.779C91.6017 143.776 86.8127 144.265 82.1728 143.798C80.4682 143.626 78.431 143.183 77.1048 141.582C76.0652 140.331 75.683 138.318 75.6869 136.469C75.6907 134.672 76.1379 132.823 77.0857 131.565C80.7816 126.658 101.627 129.577 107.36 129.313C110.066 129.188 113.017 128.436 114.893 125.458C116.777 122.469 116.732 119.426 116.548 115.724C114.27 110.592 112.302 108.908 107.868 108.776C103.125 108.636 98.3667 108.722 93.6198 108.734L53.4274 108.675C46.5554 108.68 39.6146 108.947 32.7541 108.655C26.8835 108.405 24.896 104.842 23.4284 97.5543C23.6844 95.6559 23.952 93.6585 24.5788 91.9202C29.1843 79.1465 46.0624 88.451 54.0389 84.6036C56.0455 83.6355 57.6278 81.72 58.4801 78.9886C59.1337 76.8885 59.5847 73.8331 58.912 71.6453C58.01 68.7176 56.2786 66.7564 54.1421 65.7362C50.4615 63.9793 45.8865 64.6064 42.0339 64.6276C35.7467 64.6628 8.74035 66.2644 4.2877 63.2447C2.41109 61.9712 0.993116 59.9148 0.370126 57.1094C-0.287261 54.136 -0.0617638 50.12 0.989292 47.3837C2.04417 44.6369 3.8902 43.1384 5.99996 42.3762C11.5381 40.3746 22.2856 41.5485 28.3243 41.6028L61.2282 41.7012C65.6311 41.7049 78.0794 43.464 79.4439 35.6372C83.4608 12.5911 58.2126 25.7238 50.6221 20.5838C43.0506 15.4539 44.8737 3.42388 53.1254 0.433399Z" fill="url(#paint0_linear_0_3166)" fill-opacity="0.11"/>
<defs>
<linearGradient id="paint0_linear_0_3166" x1="96.5" y1="-4.6621e-09" x2="96.5" y2="144" gradientUnits="userSpaceOnUse">
<stop stop-color="#CAAB7E"/>
<stop offset="1" stop-color="#9A6B67"/>
</linearGradient>
</defs>
</svg>
