<svg preserveAspectRatio="none" width="100%" height="100%" overflow="visible" style="display: block;" viewBox="0 0 33 34" fill="none" xmlns="http://www.w3.org/2000/svg">
<g id="1&#229;&#143;&#183;" filter="url(#filter0_d_0_49)">
<g clip-path="url(#clip0_0_49)">
<path id="Vector" d="M20.8787 8.44679C18.4632 5.93498 14.5351 5.93498 12.1195 8.44679C9.70399 10.9567 9.70399 15.0433 12.1195 17.5532C14.5351 20.065 18.4632 20.065 20.8787 17.5532C23.2925 15.0433 23.2925 10.9567 20.8787 8.44679ZM12.5648 17.092C10.3949 14.8356 10.3949 11.1644 12.5648 8.90799C14.7347 6.65159 18.2635 6.65159 20.4334 8.90799C22.6033 11.1644 22.6033 14.8356 20.4334 17.092C18.2635 19.3484 14.7347 19.3484 12.5648 17.092Z" fill="url(#paint0_linear_0_49)"/>
<g id="Group">
<path id="Vector_2" d="M13.3926 9.42445L13.3451 9.47389L13.6303 9.77063L13.6779 9.72119L13.3926 9.42445Z" fill="var(--fill-0, #CF8332)"/>
<path id="Vector_3" d="M19.6295 15.9587L19.5864 16.0122L19.895 16.2815L19.9381 16.228L19.6295 15.9587Z" fill="var(--fill-0, #CF8332)"/>
<path id="Vector_4" d="M19.8668 15.6641L19.8282 15.7213L20.1583 15.9616L20.1968 15.9044L19.8668 15.6641Z" fill="var(--fill-0, #CF8332)"/>
<path id="Vector_5" d="M20.077 15.348L20.0434 15.4085L20.3923 15.618L20.4259 15.5575L20.077 15.348Z" fill="var(--fill-0, #CF8332)"/>
<path id="Vector_6" d="M20.2586 15.0134L20.2302 15.0767L20.5953 15.2538L20.6237 15.1905L20.2586 15.0134Z" fill="var(--fill-0, #CF8332)"/>
<path id="Vector_7" d="M20.4136 14.6682L20.3906 14.7338L20.7692 14.8771L20.7922 14.8115L20.4136 14.6682Z" fill="var(--fill-0, #CF8332)"/>
<path id="Vector_8" d="M20.5387 14.3069L20.5213 14.3743L20.9105 14.4828L20.9279 14.4153L20.5387 14.3069Z" fill="var(--fill-0, #CF8332)"/>
<path id="Vector_9" d="M20.6343 13.935L20.6227 14.0038L21.0194 14.0765L21.0311 14.0078L20.6343 13.935Z" fill="var(--fill-0, #CF8332)"/>
<path id="Vector_10" d="M20.6951 13.5569L20.6893 13.6264L21.0906 13.663L21.0965 13.5934L20.6951 13.5569Z" fill="var(--fill-0, #CF8332)"/>
<path id="Vector_11" d="M21.1296 13.1746H20.7267V13.2444H21.1296V13.1746Z" fill="var(--fill-0, #CF8332)"/>
<path id="Vector_12" d="M21.126 12.755L20.7246 12.7915L20.7305 12.8611L21.1318 12.8246L21.126 12.755Z" fill="var(--fill-0, #CF8332)"/>
<path id="Vector_13" d="M21.0876 12.3361L20.6908 12.4088L20.7025 12.4776L21.0992 12.4048L21.0876 12.3361Z" fill="var(--fill-0, #CF8332)"/>
<path id="Vector_14" d="M21.0158 11.924L20.6266 12.0324L20.644 12.0999L21.0332 11.9914L21.0158 11.924Z" fill="var(--fill-0, #CF8332)"/>
<path id="Vector_15" d="M20.9069 11.5187L20.5284 11.6619L20.5513 11.7276L20.9299 11.5843L20.9069 11.5187Z" fill="var(--fill-0, #CF8332)"/>
<path id="Vector_16" d="M20.766 11.1233L20.4009 11.3004L20.4293 11.3636L20.7944 11.1866L20.766 11.1233Z" fill="var(--fill-0, #CF8332)"/>
<path id="Vector_17" d="M20.5936 10.745L20.2447 10.9545L20.2782 11.015L20.6271 10.8055L20.5936 10.745Z" fill="var(--fill-0, #CF8332)"/>
<path id="Vector_18" d="M20.388 10.3822L20.058 10.6225L20.0965 10.6797L20.4265 10.4394L20.388 10.3822Z" fill="var(--fill-0, #CF8332)"/>
<path id="Vector_19" d="M20.1535 10.04L19.8449 10.3093L19.8881 10.3628L20.1967 10.0935L20.1535 10.04Z" fill="var(--fill-0, #CF8332)"/>
<path id="Vector_20" d="M19.8912 9.72039L19.6058 10.0171L19.6534 10.0665L19.9387 9.76984L19.8912 9.72039Z" fill="var(--fill-0, #CF8332)"/>
<path id="Vector_21" d="M19.6034 9.4246L19.3445 9.74558L19.396 9.79045L19.6549 9.46948L19.6034 9.4246Z" fill="var(--fill-0, #CF8332)"/>
<path id="Vector_22" d="M19.2923 9.15769L19.0614 9.50095L19.1164 9.54098L19.3474 9.19772L19.2923 9.15769Z" fill="var(--fill-0, #CF8332)"/>
<path id="Vector_23" d="M18.9589 8.91814L18.7576 9.28102L18.8158 9.31591L19.0171 8.95303L18.9589 8.91814Z" fill="var(--fill-0, #CF8332)"/>
<path id="Vector_24" d="M18.6081 8.71179L18.4378 9.09145L18.4986 9.12097L18.6689 8.74131L18.6081 8.71179Z" fill="var(--fill-0, #CF8332)"/>
<path id="Vector_25" d="M18.241 8.53757L18.1032 8.93122L18.1663 8.95511L18.3041 8.56146L18.241 8.53757Z" fill="var(--fill-0, #CF8332)"/>
<path id="Vector_26" d="M17.8604 8.39566L17.7561 8.80033L17.821 8.8184L17.9253 8.41374L17.8604 8.39566Z" fill="var(--fill-0, #CF8332)"/>
<path id="Vector_27" d="M17.4686 8.29002L17.3987 8.70259L17.4648 8.71472L17.5348 8.30214L17.4686 8.29002Z" fill="var(--fill-0, #CF8332)"/>
<path id="Vector_28" d="M17.0708 8.21879L17.0357 8.63614L17.1026 8.64222L17.1377 8.22488L17.0708 8.21879Z" fill="var(--fill-0, #CF8332)"/>
<path id="Vector_29" d="M16.735 8.18749H16.6679V8.60643H16.735V8.18749Z" fill="var(--fill-0, #CF8332)"/>
<path id="Vector_30" d="M16.3298 8.18403L16.2629 8.19012L16.298 8.60747L16.3649 8.60138L16.3298 8.18403Z" fill="var(--fill-0, #CF8332)"/>
<path id="Vector_31" d="M15.9276 8.21606L15.8614 8.22818L15.9314 8.64076L15.9975 8.62863L15.9276 8.21606Z" fill="var(--fill-0, #CF8332)"/>
<path id="Vector_32" d="M15.529 8.28868L15.4641 8.30676L15.5684 8.71142L15.6332 8.69335L15.529 8.28868Z" fill="var(--fill-0, #CF8332)"/>
<path id="Vector_33" d="M15.138 8.39491L15.0749 8.4188L15.2127 8.81245L15.2758 8.78856L15.138 8.39491Z" fill="var(--fill-0, #CF8332)"/>
<path id="Vector_34" d="M14.7556 8.53401L14.6947 8.56352L14.865 8.94321L14.9259 8.9137L14.7556 8.53401Z" fill="var(--fill-0, #CF8332)"/>
<path id="Vector_35" d="M14.389 8.70819L14.3308 8.7431L14.5323 9.10591L14.5904 9.071L14.389 8.70819Z" fill="var(--fill-0, #CF8332)"/>
<path id="Vector_36" d="M14.037 8.91655L13.982 8.9566L14.2131 9.29978L14.2681 9.25973L14.037 8.91655Z" fill="var(--fill-0, #CF8332)"/>
<path id="Vector_37" d="M13.7061 9.15631L13.6547 9.2012L13.9136 9.52212L13.9651 9.47724L13.7061 9.15631Z" fill="var(--fill-0, #CF8332)"/>
</g>
<g id="Vector_38" filter="url(#filter1_d_0_49)">
<path d="M8.33454 4.41173L9.38945 5.50869C5.50021 9.61724 5.51965 16.2486 9.446 20.3333C13.3741 24.418 19.7513 24.4363 23.7024 20.3921L24.7574 21.489C20.2231 26.1378 12.8988 26.1194 8.38931 21.4302C3.88338 16.7429 3.86394 9.12481 8.33454 4.41173Z" fill="url(#paint1_linear_0_49)" shape-rendering="crispEdges"/>
</g>
<g id="Group_2">
<path id="Vector_39" d="M26.7029 9.57131C26.1993 7.93965 25.3263 6.40721 24.0841 5.11364C21.6456 2.57795 18.3165 1.52325 15.1341 1.94587C15.1942 2.26375 15.2419 2.58346 15.2843 2.90686C18.1787 2.53385 21.2038 3.49668 23.4215 5.80269C24.54 6.9658 25.3281 8.34205 25.7911 9.8065C26.0932 9.72198 26.3972 9.64481 26.7029 9.57315V9.57131Z" fill="url(#paint2_linear_0_49)"/>
<path id="Vector_40" d="M26.0826 10.9531C26.664 13.9187 25.9678 17.1049 23.994 19.545C24.1884 19.7968 24.4039 20.0375 24.6248 20.2727C26.8601 17.5753 27.6482 14.0198 26.9891 10.7179C26.6852 10.7914 26.3813 10.8667 26.0809 10.9531H26.0826Z" fill="url(#paint3_linear_0_49)"/>
</g>
<path id="Vector_41" d="M22.5256 6.73428C19.2018 3.27802 13.7964 3.27802 10.4726 6.73428C7.15062 10.1887 7.15062 15.8113 10.4726 19.2657C13.7964 22.722 19.2018 22.722 22.5256 19.2657C25.8476 15.8113 25.8476 10.1887 22.5256 6.73428ZM12.5648 17.092C10.3949 14.8356 10.3949 11.1644 12.5648 8.90799C14.7347 6.65159 18.2635 6.65159 20.4334 8.90799C22.6033 11.1644 22.6033 14.8356 20.4334 17.092C18.2635 19.3484 14.7347 19.3484 12.5648 17.092Z" fill="url(#paint4_linear_0_49)"/>
<path id="Vector_42" d="M21.2869 8.0205C18.6469 5.27534 14.3513 5.27534 11.7096 8.0205C9.06962 10.7657 9.06962 15.2343 11.7096 17.9795C14.3513 20.7247 18.6469 20.7247 21.2869 17.9795C23.9286 15.2343 23.9286 10.7657 21.2869 8.0205ZM12.1973 17.4742C9.82414 15.0065 9.82414 10.9935 12.1973 8.5258C14.5686 6.05809 18.4296 6.05809 20.801 8.5258C23.1741 10.9935 23.1741 15.0065 20.801 17.4742C18.4296 19.9419 14.5686 19.9419 12.1973 17.4742Z" fill="url(#paint5_linear_0_49)"/>
<path id="Vector_43" d="M19.1488 10.2457C17.6874 8.72608 15.3126 8.72608 13.8512 10.2457C12.3899 11.7652 12.3916 14.2348 13.8512 15.7525C15.3108 17.2702 17.6874 17.2721 19.1488 15.7525C20.6084 14.2348 20.6084 11.7634 19.1488 10.2457ZM13.6904 15.9216C12.1407 14.3101 12.1407 11.6899 13.6904 10.0784C15.2401 8.467 17.7599 8.467 19.3078 10.0784C20.8575 11.6899 20.8575 14.3101 19.3078 15.9216C17.7581 17.533 15.2383 17.533 13.6904 15.9216Z" fill="url(#paint6_linear_0_49)"/>
<path id="Vector_44" d="M25.0683 4.09201C20.3433 -0.821343 12.6567 -0.821343 7.93165 4.09201C3.20837 9.00353 3.20837 16.9983 7.93165 21.9098C12.6567 26.8232 20.3433 26.8232 25.0683 21.9098C29.7916 16.9983 29.7916 9.00353 25.0683 4.09201ZM7.65776 22.1965C2.78075 17.1251 2.78075 8.87491 7.65776 3.80353C12.5348 -1.26784 20.4652 -1.26784 25.3422 3.80353C30.2193 8.87491 30.2193 17.1251 25.3422 22.1965C20.4652 27.2678 12.5348 27.2678 7.65776 22.1965Z" fill="url(#paint7_linear_0_49)"/>
</g>
</g>
<defs>
<filter id="filter0_d_0_49" x="0" y="0" width="33" height="34" filterUnits="userSpaceOnUse" color-interpolation-filters="sRGB">
<feFlood flood-opacity="0" result="BackgroundImageFix"/>
<feColorMatrix in="SourceAlpha" type="matrix" values="0 0 0 0 0 0 0 0 0 0 0 0 0 0 0 0 0 0 127 0" result="hardAlpha"/>
<feOffset dy="4"/>
<feGaussianBlur stdDeviation="2"/>
<feComposite in2="hardAlpha" operator="out"/>
<feColorMatrix type="matrix" values="0 0 0 0 0.490385 0 0 0 0 0.357572 0 0 0 0 0.357572 0 0 0 0.73 0"/>
<feBlend mode="normal" in2="BackgroundImageFix" result="effect1_dropShadow_0_49"/>
<feBlend mode="normal" in="SourceGraphic" in2="effect1_dropShadow_0_49" result="shape"/>
</filter>
<filter id="filter1_d_0_49" x="0.995666" y="4.41173" width="27.7617" height="28.5497" filterUnits="userSpaceOnUse" color-interpolation-filters="sRGB">
<feFlood flood-opacity="0" result="BackgroundImageFix"/>
<feColorMatrix in="SourceAlpha" type="matrix" values="0 0 0 0 0 0 0 0 0 0 0 0 0 0 0 0 0 0 127 0" result="hardAlpha"/>
<feOffset dy="4"/>
<feGaussianBlur stdDeviation="2"/>
<feComposite in2="hardAlpha" operator="out"/>
<feColorMatrix type="matrix" values="0 0 0 0 0 0 0 0 0 0 0 0 0 0 0 0 0 0 0.25 0"/>
<feBlend mode="normal" in2="BackgroundImageFix" result="effect1_dropShadow_0_49"/>
<feBlend mode="normal" in="SourceGraphic" in2="effect1_dropShadow_0_49" result="shape"/>
</filter>
<linearGradient id="paint0_linear_0_49" x1="12.1211" y1="17.5556" x2="21.2221" y2="8.80338" gradientUnits="userSpaceOnUse">
<stop stop-color="#CA972B"/>
<stop offset="1" stop-color="#FFBC81" stop-opacity="0"/>
</linearGradient>
<linearGradient id="paint1_linear_0_49" x1="24.8187" y1="4.35197" x2="7.75011" y2="20.7664" gradientUnits="userSpaceOnUse">
<stop stop-color="#FFBC81" stop-opacity="0"/>
<stop offset="1" stop-color="white"/>
</linearGradient>
<linearGradient id="paint2_linear_0_49" x1="7.64298" y1="19.5642" x2="23.4042" y2="4.40711" gradientUnits="userSpaceOnUse">
<stop stop-color="#FFBC81" stop-opacity="0"/>
<stop offset="1" stop-color="#F9E24A"/>
</linearGradient>
<linearGradient id="paint3_linear_0_49" x1="14.6001" y1="26.7986" x2="30.3613" y2="11.6415" gradientUnits="userSpaceOnUse">
<stop stop-color="#FFBC81" stop-opacity="0"/>
<stop offset="1" stop-color="#F9E24A"/>
</linearGradient>
<linearGradient id="paint4_linear_0_49" x1="10.4743" y1="19.268" x2="22.9976" y2="7.2247" gradientUnits="userSpaceOnUse">
<stop stop-color="#FFBC81" stop-opacity="0"/>
<stop offset="1" stop-color="#F9E24A"/>
</linearGradient>
<linearGradient id="paint5_linear_0_49" x1="11.71" y1="17.9804" x2="21.6614" y2="8.41045" gradientUnits="userSpaceOnUse">
<stop stop-color="#FFBC81" stop-opacity="0"/>
<stop offset="1" stop-color="#F9E24A"/>
</linearGradient>
<linearGradient id="paint6_linear_0_49" x1="13.6917" y1="15.9224" x2="19.5301" y2="10.3077" gradientUnits="userSpaceOnUse">
<stop stop-color="#FFBC81" stop-opacity="0"/>
<stop offset="1" stop-color="#F9E24A"/>
</linearGradient>
<linearGradient id="paint7_linear_0_49" x1="7.65672" y1="22.1979" x2="26.0353" y2="4.52371" gradientUnits="userSpaceOnUse">
<stop stop-color="#FFBC81" stop-opacity="0"/>
<stop offset="1" stop-color="#F9C24A"/>
</linearGradient>
<clipPath id="clip0_0_49">
<rect width="25" height="26" fill="white" transform="translate(4)"/>
</clipPath>
</defs>
</svg>
