<svg preserveAspectRatio="none" width="100%" height="100%" overflow="visible" style="display: block;" viewBox="0 0 387.149 151.954" fill="none" xmlns="http://www.w3.org/2000/svg">
<path id="Rectangle 18" d="M8.76306 0.0305095C13.9185 -0.0476489 20.6764 0.0359211 25.8124 0.150626C27.422 0.186202 26.6069 0.345226 27.718 0.376944C29.8912 0.438775 31.9157 0.360783 34.0633 0.434439C34.775 0.459627 33.889 0.711522 34.6353 0.732167C38.7248 0.84349 42.5935 0.77933 46.7362 0.832875C67.1416 1.09706 87.1995 1.19161 107.855 1.30638C114.665 1.34401 122.944 1.57262 129.979 1.47264C130.8 1.46075 130.31 1.23965 130.466 1.22142C132.917 0.942449 132.102 1.3888 133.702 1.44811C140.053 1.68226 147.114 1.70263 153.226 1.6173C155.826 1.58035 153.219 1.14119 155.837 1.38768C156.019 1.40434 155.359 1.63913 156.072 1.66417C157.689 1.72049 160.757 1.67853 162.01 1.69713C164.425 1.73417 164.825 1.73181 167.109 1.73448C170.232 1.74018 173.947 1.8569 177.298 1.8037C178.013 1.79164 177.066 1.55096 178.207 1.51C179.348 1.46911 182.368 1.48951 183.387 1.54625C184.405 1.60302 183.972 1.7922 184.152 1.83556C185.635 2.20155 189.128 1.69465 189.577 1.68212C197.773 1.46852 204.801 1.75728 212.495 1.75646C218.335 1.75522 224.58 1.65989 230.137 1.67296C236.758 1.68947 242.369 1.81989 248.801 1.79747C249.48 1.79538 248.684 1.51239 249.513 1.50926C258.321 1.47633 267.068 1.50718 275.838 1.69823C276.718 1.71764 275.584 1.9661 276.463 2.00035C281.843 2.20455 290.355 2.69507 293.551 1.61327C297.195 1.65551 301.619 1.69916 304.88 1.91722C306.982 2.05757 304.94 2.32825 307.522 2.21275C308.105 2.18702 307.347 1.94997 308.221 1.92931C311.898 1.84253 315.915 1.91958 319.553 1.79711C320.293 1.77164 320.091 1.55923 320.3 1.52098C322.062 1.21122 324.995 1.72328 325.635 1.76048C330.504 2.03795 334.06 1.92876 338.596 1.93553C339.648 1.93722 338.404 1.65192 339.417 1.6433C344.67 1.60241 350.112 1.62693 355.255 1.75353C356.399 1.78237 355.347 2.0254 355.894 2.05162C358.305 2.16427 358.839 1.70525 361.151 1.80443C361.639 1.82475 361.364 2.0328 361.453 2.05565C362.845 2.41433 364.054 1.9061 364.412 1.89488C368.939 1.74157 371.833 2.27213 376.207 2.19701C376.73 2.18748 375.551 1.92424 377.021 1.91356C379.974 1.89166 382.978 1.88293 386 1.88718L387.106 1.87997L387.113 3C387.103 10.0061 387.023 17.1072 386.876 23.884C386.844 25.3921 386.646 24.3155 386.622 24.4104C386.241 25.9571 386.751 26.958 386.77 27.4497C386.909 31.329 386.481 34.9529 387.089 37.5887C386.878 54.0181 387.219 70.3722 386.674 86.666C386.668 86.8731 386.417 86.5019 386.405 86.9151C386.264 91.8918 386.655 90.9361 387.133 94.229C387.253 95.0585 386.676 97.5819 386.633 97.8052C386.478 98.6186 386.104 97.7749 386.074 98.0474C385.837 100.301 387.073 99.9341 387.074 102.975C387.072 103.07 386.844 102.67 386.821 102.926C386.75 103.718 386.841 104.505 386.762 105.28C386.581 107.056 385.98 107.689 386.33 110.401C386.375 110.744 387.077 110.22 387.044 112.935C387.03 114.017 387.042 118.808 386.996 120.15C386.951 121.491 386.725 120.571 386.715 120.666C386.416 124.28 386.292 122.909 385.85 124.72C385.409 126.53 386.46 126.028 386.578 126.766C386.695 127.505 386.448 130.154 386.362 130.805C386.277 131.456 386.133 130.644 386.085 131.223C385.767 135.059 386.606 132.907 386.773 134.171C387.169 137.151 386.389 139.472 386.312 142.201C386.292 142.939 386.469 142.337 386.486 142.994C386.549 145.597 386.306 147.163 386.529 150.125C386.54 150.27 386.59 150.587 386.645 151L386.649 151.64L386 151.645C385.032 151.773 383.532 151.931 382.446 151.69C382.226 151.641 382.85 151.446 381.74 151.403C380.083 151.337 377.096 151.295 375.314 151.36C373.999 151.408 375.507 151.728 373.851 151.629C373.115 151.584 374.479 151.397 373.096 151.329C371.721 151.261 368.205 151.27 366.867 151.276C365.531 151.283 366.262 151.526 366.154 151.542C365.501 151.636 362.938 151.753 362.712 151.752C351.287 151.782 340.751 151.373 329.627 151.508C328.754 151.518 329.336 151.775 329.203 151.779C326.214 151.886 328.57 151.205 326.483 150.977C326.784 151.497 325.552 151.403 323.447 151.46C322.433 151.488 322.985 151.689 322.893 151.71C321.388 152.015 320.341 151.62 320.071 151.54C319.075 151.243 317.99 151.594 317.312 151.395C316.635 151.198 318.194 150.906 316.175 150.909C315.609 151.096 317.108 151.582 315.575 151.661C309.792 151.959 298.996 151.577 294.346 151.537C289.705 151.498 288.206 151.532 285.502 151.465C280.617 151.343 282.407 151.704 279.374 151.869C276.332 152.034 277.811 151.147 277.374 150.956C276.945 150.765 276.476 150.962 275.942 150.857C275.41 150.752 276.562 150.622 275.31 150.583C274.058 150.543 270.634 150.883 270.19 151.082C269.251 151.505 270.794 151.949 267.481 151.793C267.29 151.783 267.909 151.55 267.179 151.527C261.382 151.347 255.361 151.336 249.571 151.177C248.775 151.155 249.487 150.895 249.024 150.879C244.199 150.713 245.924 151.151 243.279 151.637C243.873 150.99 242.41 150.594 238.748 150.59C236.547 150.588 236.926 150.87 235.502 151.069C235.075 151.13 233.517 150.935 233.235 151.068C232.304 151.503 233.771 151.989 229.995 151.796C229.83 151.786 230.357 151.549 229.785 151.534C226.085 151.44 225.642 151.894 221.643 151.949C218.508 151.993 212.932 151.715 209.363 151.67C209.438 150.943 206.066 151.109 204.699 151.611C202.382 151.591 199.88 151.619 197.641 151.55C196.87 151.526 197.377 151.315 197.279 151.292C195.789 150.935 194.782 151.424 194.282 151.443C188.863 151.629 184.448 151.259 179.276 151.62C179.092 151.633 178.795 152.139 177.412 151.77C177.323 151.744 179.031 151.514 176.598 151.496C174.164 151.479 169.577 151.208 166.199 151.442C165.382 151.498 163.314 151.909 161.654 151.588C161.433 151.544 161.675 151.4 161.356 151.319C160.324 151.062 159.761 151.573 158.548 151.139C157.336 150.705 154.813 150.38 151.406 150.679C151.298 150.688 150.491 151.093 149.42 151.086C147.71 151.076 145.282 150.991 143.496 150.994C142.641 150.995 143.188 151.247 143.04 151.251C137.291 151.392 133.199 151.168 127.04 151.071C125.911 151.053 122.666 151.395 120.48 151.124C118.08 150.828 120.547 149.593 115.03 149.887C112.805 150.005 109.988 151.571 105.99 150.76C98.2347 150.961 91.063 150.545 83.2865 150.833C82.9368 150.845 81.831 151.282 81.0088 151.276C79.7883 151.267 79.1183 151.062 78.2468 151.049C74.595 150.987 71.2532 151.162 67.7323 151.135C66.3955 151.125 66.863 150.914 65.2686 150.902C63.6752 150.891 62.6127 151.169 60.4535 151.034C58.8228 150.932 57.1923 150.363 55.0278 150.297C54.9452 150.858 53.4587 150.846 50.8163 150.994C50.3084 151.023 50.8531 151.218 50.6128 151.242C49.635 151.343 48.7301 151.181 47.8016 151.29C47.5758 151.317 47.5651 151.508 47.3805 151.54C45.8104 151.822 43.2238 151.392 42.7795 151.317C41.0769 151.032 40.2812 151.281 38.9752 151.169C37.6714 151.057 39.6209 150.916 38.0978 150.848C34.9407 150.708 30.8843 150.738 27.678 150.73C26.3986 150.727 27.2716 150.983 27.0884 150.989C24.443 151.053 21.7678 150.781 20.301 151.291C18.4668 149.974 18.7058 151.418 14.9244 151.155C14.6265 151.133 14.2476 150.511 15.3912 150.419C16.5347 150.328 18.2688 150.523 19.8553 150.38C20.231 150.347 22.3833 149.763 22.6769 149.728C24.9772 149.452 25.3032 150.382 25.4249 150.433C26.805 150.985 29.4351 150.356 30.1277 150.313C33.2962 150.114 35.9881 150.245 38.6383 150.103C40.3715 150.011 40.5411 149.401 41.9021 149.42C46.4265 149.482 48.0058 150.332 52.2693 149.595C53.1835 149.438 52.2749 148.771 55.5507 149.295C55.7565 149.328 58.1886 149.807 59.5937 149.504C59.7702 149.466 59.7646 149.272 59.9973 149.256C61.557 149.15 62.5973 149.305 64.2964 149.231C65.9955 149.157 68.0384 149.046 69.9784 149.112C71.1474 149.151 72.6474 149.513 73.2071 149.602C74.7874 149.857 76.4817 149.439 77.4607 149.747C78.4479 150.058 76.5179 150.529 79.1066 150.73C79.2025 150.226 79.4227 149.708 79.5769 149.201C85.2502 149.218 90.8323 149.382 96.5244 149.359C97.2301 149.356 96.5084 149.085 97.265 149.074C100.457 149.031 103.245 149.225 106.555 149.148C109.117 149.087 111.926 148.8 114.606 148.728C116.242 149.305 120.218 149.109 123.106 149.162C124.117 149.18 124.05 149.334 124.769 149.384C127.483 149.57 126.211 149.06 126.956 148.98C130.148 148.637 130.421 149.792 134.185 149.763C134.385 149.762 136.822 149.147 137.158 149.108C139.291 148.859 137.511 149.323 138.846 149.368C141.283 149.451 142.977 149.598 145.837 149.418C146.671 149.364 148.671 148.981 150.29 149.278C150.503 149.316 150.386 149.52 150.557 149.532C153.661 149.73 153.743 149.091 155.516 148.875C157.29 148.658 160.03 149.1 160.587 149.227C162.046 149.556 159.47 149.367 159.391 149.4C158.463 149.784 160.461 149.718 161.988 149.75C162.209 150.377 164.344 150.339 163.57 149.781C163.482 149.72 162.294 149.779 161.988 149.75C163.328 149.135 165.674 149.056 168.266 149.631C169.479 149.9 168.333 150.214 172.018 150.099C173.69 150.048 173.044 149.616 174.52 149.498C177.892 149.23 182.274 149.633 185.751 149.569C187.012 149.546 185.783 149.31 186.646 149.286C188.934 149.222 190.952 149.399 193.251 149.308C193.459 149.3 192.95 149.053 193.665 149.049C199.083 149.021 203.801 149.179 209.458 149.184C212.191 149.186 217.077 149.049 219.909 149.077C224.816 149.123 230.853 149.482 235.046 149.395C237.78 149.339 237.18 149.092 238.352 148.923C240.612 148.597 244.614 149.182 245.153 149.272C245.169 149.275 242.817 149.333 244.072 149.46C244.802 149.725 245.126 149.273 245.153 149.272C245.507 149.331 250.207 149.387 251.14 149.339C251.647 149.314 251.364 149.079 251.628 149.07C257.913 148.861 264.209 148.801 270.583 148.911C270.695 148.915 270.526 149.177 270.79 149.185C274.48 149.302 276.843 148.981 279.887 148.791C282.93 148.601 285.343 148.664 287.144 149.114C289.441 149.058 292.735 149.257 294.63 149.377C296.526 149.498 296.79 148.988 296.957 148.978C302.159 148.655 305.167 148.947 310.564 148.992C313.129 149.015 318.219 148.941 320.997 148.885C323.193 148.84 324.516 148.96 326.539 148.883C326.813 148.873 326.536 148.646 326.62 148.637C328.878 148.365 327.792 148.921 328.259 149.02C329.949 149.38 330.993 149.573 333.884 149.403C334.551 149.364 336.494 148.564 337.71 148.518C339.29 148.458 338.694 148.745 340.349 148.676C340.491 148.67 340.461 148.493 341.483 148.501C346.224 148.535 351.393 148.638 356.321 148.62C356.994 148.618 356.131 148.338 357.103 148.331C361.667 148.297 366.668 148.308 371.113 148.439C372.208 148.472 371.522 148.669 371.759 148.727C373.217 149.08 375.286 148.567 375.627 148.557C379.358 148.444 382.688 148.481 386 148.532L383.532 151C383.592 147.088 383.674 143.201 383.554 138.709C383.541 138.257 382.992 134.781 383.463 133.23C383.494 133.124 383.976 131.59 383.647 130.233C383.626 130.149 383.378 131.105 383.403 129.437C383.428 127.768 383.263 125.083 383.535 122.79C383.621 122.063 384.102 120.347 383.719 118.182C383.692 118.04 382.825 114.697 383.423 113.503C383.522 113.31 384.155 113.512 383.83 110.927C383.767 110.433 383.626 111.33 383.538 110.029C383.402 108.035 383.572 105.394 383.29 102.943C383.24 102.516 382.81 100.696 383.136 99.2371C383.187 99.0085 383.399 99.4428 383.422 98.6721C383.536 95.0072 383.394 91.1697 383.54 87.4486C383.592 86.1306 383.933 86.8044 384.025 85.4306C384.116 84.0564 384.204 81.2882 384.048 79.8504C383.892 78.4124 383.348 79.9833 383.304 77.829C383.115 68.4632 383.434 59.1854 383.481 49.8334C383.488 48.4464 383.293 49.5963 383.29 47.5522C383.275 40.0161 383.092 27.005 383.506 20.4657C383.838 15.2262 384.09 21.8198 384.225 17.816C384.29 15.8839 383.657 13.7937 383.637 13.3273C383.46 9.33971 383.652 6.41663 383.645 3L386 5.35458C385.513 5.35555 385.016 5.36058 384.504 5.37131C383.657 5.38916 384.487 5.6457 383.767 5.65806C381.305 5.70254 378.718 5.58804 376.365 5.60898C375.31 5.61897 375.504 5.8149 374.533 5.79978C372.21 5.76585 370.155 5.68349 367.89 5.49985C367.683 5.48312 369.075 5.23939 367.356 5.23032C364.574 5.21634 361.12 5.03518 357.919 5.22227C356.969 5.27854 356.932 5.72634 354.89 5.41709C354.462 5.3525 355.008 4.81479 352.63 5.27939C352.23 5.3566 348.235 5.98326 346.274 5.57932C345.757 5.47301 344.437 5.033 343.295 5.10215C343.14 5.11318 343.76 5.35371 342.814 5.37717C339.478 5.45567 335.983 5.43001 332.556 5.50535C331.641 5.52594 333.004 5.77484 331.64 5.79758C327.889 5.86049 323.206 5.79712 319.539 5.71921C318.187 5.69002 319.121 5.48384 319.023 5.4614C317.441 5.09645 316.505 5.58905 315.98 5.61777C312.714 5.78976 310.227 5.55837 307.217 5.6196C306.386 5.63588 306.975 5.87075 306.81 5.8917C305.095 6.09633 306.372 5.67452 305.287 5.62803C302.245 5.49637 298.855 5.51525 295.779 5.54526C294.65 5.55663 295.919 5.82898 294.905 5.83603C288.905 5.88296 282.667 5.8569 276.81 5.70676C275.708 5.678 276.401 5.46828 276.172 5.42038C274.588 5.08527 272.266 5.54237 271.732 5.58591C269.303 5.78472 268.36 5.59927 266.215 5.63389C255.737 5.80623 242.8 5.6834 232.91 5.60752C220.021 5.50986 210.02 5.31035 197.73 5.36216C196.949 5.36519 197.737 5.64417 197.063 5.65036C188.37 5.71762 179.811 5.6086 171.1 5.68918C170.385 5.6953 171.415 5.95978 170.268 5.97849C167.915 6.01872 164.934 6.00434 162.554 5.91989C161.394 5.87921 162.95 5.65226 161.782 5.61594C159.062 5.53085 156.146 5.51202 153.352 5.55442C152.163 5.57304 153.957 5.84353 152.412 5.84665C141.884 5.87349 131.545 5.92007 120.907 5.5698C120.177 5.54574 119.537 4.99599 117.987 5.10142C117.87 5.25399 117.876 5.43346 117.825 5.59653C102.5 5.68438 87.331 5.4938 71.9627 5.46433C71.3147 5.46315 72.4345 5.75444 71.18 5.75364C63.9194 5.74933 56.8688 5.83002 49.442 5.5405C48.7051 5.51219 49.0832 4.99974 46.9116 5.07725C46.5286 5.09139 43.258 5.15973 42.4124 5.27097C42.2976 5.28775 42.8943 5.52694 41.8404 5.53391C35.7158 5.57023 29.2976 5.51563 23.1837 5.36948C22.197 5.34544 23.2478 5.09072 22.545 5.07139C17.5596 4.93617 12.137 5.1298 7.37329 4.89854C4.18462 4.74282 5.36516 4.30252 3.67074 3.86912C3.43108 3.80797 1.45656 3.79828 1.35445 3.54612C1.0923 2.91204 2.0487 2.21773 1.65627 1.54186C1.57336 1.39628 -1.07104 1.55308 0.494613 1.20128C0.60399 1.17774 2.52119 1.06098 2.9934 0.941639C3.32216 0.859129 2.72971 0.602682 3.4005 0.497061C4.07123 0.391538 4.80828 0.606507 5.92034 0.482412C7.03191 0.356782 6.54315 0.0650439 8.76306 0.0305095ZM303.165 149.917C304.921 150.162 305.18 149.264 303.281 149.479C303.189 149.49 303.075 149.905 303.165 149.917ZM90.8004 150.058C93.095 150.454 94.6653 149.872 93.0465 149.567C91.428 149.261 90.1013 149.938 90.8004 150.058ZM67.0058 150.347C69.6877 150.659 70.1098 149.387 67.2374 149.644C67.0703 149.659 66.8491 150.329 67.0058 150.347ZM11.5286 3.74571C11.5043 3.73379 10.085 3.72218 10.0511 3.73399C9.29528 4.01896 12.1334 4.04199 11.5286 3.74571ZM43.3937 150.662C44.2309 150.834 46.6414 150.635 45.6012 150.421C44.7638 150.249 42.351 150.448 43.3937 150.662ZM385.874 142.274C385.888 142.247 385.9 141.229 385.824 141.25C385.581 141.319 385.649 142.735 385.874 142.274ZM3.26223 150.677C9.19145 150.724 12.7865 151.775 6.32958 151.657C5.16025 151.635 8.84956 151.322 7.36137 151.227C4.63818 151.054 2.82997 151.714 0.0509968 151.361C-0.452065 151.296 2.92402 150.671 3.27275 150.675C3.26924 150.676 3.26578 150.676 3.26223 150.677ZM304.176 150.994C304.211 151.006 305.62 151.018 305.654 151.006C306.417 150.721 303.579 150.698 304.176 150.994ZM386.429 82.8967C386.454 82.819 386.478 79.55 386.455 79.4433C385.989 77.738 385.94 84.3471 386.429 82.8967ZM209.307 151.651C207.77 151.938 205.931 151.971 204.706 151.611C206.233 151.631 207.771 151.633 209.307 151.651Z" fill="url(#paint0_linear_0_17)"/>
<defs>
<linearGradient id="paint0_linear_0_17" x1="5.21623" y1="155.327" x2="111.366" y2="0.254932" gradientUnits="userSpaceOnUse">
<stop stop-color="#6E3535"/>
<stop offset="0.899333" stop-color="#1C140E" stop-opacity="0"/>
</linearGradient>
</defs>
</svg>
