<svg preserveAspectRatio="none" width="100%" height="100%" overflow="visible" style="display: block;" viewBox="0 0 204.763 131" fill="none" xmlns="http://www.w3.org/2000/svg">
<g id="&#228;&#186;&#145;9">
<path id="Vector" d="M51.4112 41.6728C55.3958 39.3614 62.1201 38.9701 65.8682 39.1727C71.7626 39.4904 75.6089 30.6613 74.0516 27.2287C67.4344 12.6561 35.5486 25.7589 23.5725 18.2024C21.5913 16.9495 20.2393 14.7064 19.9672 12.5374C19.0524 -2.11892 33.1168 0.398479 42.2551 0.476163L63.9183 0.456217L100.342 0.399056C105.812 0.385313 140.746 -4.04255 127.882 16.9379C124.535 22.3972 100.971 20.13 92.761 20.5378C92.2033 20.8854 91.6544 21.2469 91.1145 21.6212C85.5191 25.5402 85.2335 31.5961 88.9325 36.7302C92.6494 40.6411 103.354 39.2044 108.093 39.4623C121.514 40.1941 136.047 38.78 149.273 39.8759L149.813 39.9228C153.485 40.1481 156.269 40.3092 159.116 43.0199C163.676 47.8482 161.686 56.6331 154.841 58.2738C144.235 60.7793 133.317 57.7576 122.554 59.9886C113.456 61.8742 115.553 74.0976 122.469 75.3706C131.179 76.9734 141.665 75.3447 150.629 75.8985C156.323 76.2505 162.815 75.2296 168.178 77.362C172.645 79.1397 174.872 85.346 172.707 89.5907C169.205 96.3694 161.557 95.3807 155.158 95.4761C145.003 95.6274 134.575 95.0335 124.464 95.6354C118.48 95.9911 114.223 101.752 116.816 107.413C117.891 109.757 120.136 111.633 122.782 112.184C131.277 113.412 143.811 110.686 151.722 113.612L152.303 113.83C157.617 119.424 157.733 127.262 149.795 130.121C148.577 130.571 147.305 130.842 146.011 130.926C142.446 131.128 135.641 130.852 131.777 130.862L96.8482 130.825L65.1007 130.777C59.8043 130.79 54.0259 130.721 48.5421 130.81C36.7846 131.002 33.1123 117.607 43.8927 113.052C46.7216 111.855 52.0627 112.369 55.3155 112.288C66.4394 112.012 78.1835 113.374 89.2002 111.896C91.2885 111.609 93.9167 109.706 94.9251 107.752C95.9781 105.668 96.1075 103.238 95.282 101.055C94.4521 98.7232 92.5468 96.9334 90.1685 96.2467C88.3346 95.7006 85.6663 95.4868 83.7432 95.4971C59.4607 95.6644 35.3032 95.0813 11.0163 95.1214C-2.11554 95.1428 -3.54787 79.6488 6.93795 76.3348C10.0168 75.363 20.6855 75.7566 24.7014 75.7664L66.5732 75.8052C73.7928 75.8525 81.3516 76.0939 88.5756 75.6896C91.4715 75.28 94.1442 74.5991 95.6211 71.8478C98.4278 66.6116 96.5984 62.1223 90.7442 59.8927C79.9951 55.8001 36.3786 66.7124 51.4112 41.6728Z" fill="url(#paint0_linear_0_16)" fill-opacity="0.34"/>
<path id="Vector_2" d="M191.676 76.3491C193.518 76.2666 196.303 75.9993 197.963 76.744C207.23 80.8951 207.043 91.525 197.293 94.9389C185.893 95.7095 180.57 88.9464 186.567 78.6998C188.195 77.8163 189.971 77.0925 191.676 76.3491Z" fill="url(#paint1_linear_0_16)" fill-opacity="0.34"/>
</g>
<defs>
<linearGradient id="paint0_linear_0_16" x1="86.7715" y1="9.76271e-08" x2="86.7715" y2="131" gradientUnits="userSpaceOnUse">
<stop stop-color="#CAAB7E"/>
<stop offset="1" stop-color="#9A6B67"/>
</linearGradient>
<linearGradient id="paint1_linear_0_16" x1="194.42" y1="76.2345" x2="194.42" y2="94.9986" gradientUnits="userSpaceOnUse">
<stop stop-color="#CAAB7E"/>
<stop offset="1" stop-color="#9A6B67"/>
</linearGradient>
</defs>
</svg>
