<svg preserveAspectRatio="none" width="100%" height="100%" overflow="visible" style="display: block;" viewBox="0 0 132.14 58.5657" fill="none" xmlns="http://www.w3.org/2000/svg">
<g id="&#228;&#186;&#145;4">
<path id="Vector" d="M28.7446 0.265875C34.1433 -0.257077 47.6388 0.152668 53.7294 0.153039L80.623 0.157479C87.6638 0.158964 94.9086 -0.334655 101.678 1.06162C106.648 2.086 108.526 8.97679 107.075 13.0112C102.647 25.2911 83.7036 13.0183 79.4873 25.0985C77.2307 34.3346 84.5164 37.1758 92.2029 36.5834C95.5656 36.3243 102.84 36.4832 106.032 37.1669L106.526 37.2756C108.652 38.9217 110.913 41.3906 110.215 44.2844C108.526 51.2469 94.4855 48.2806 89.3043 48.6919C83.2768 49.1699 78.4703 47.149 73.3707 51.2921C72.6804 56.5951 71.3999 58.6009 65.6025 58.5652C48.4145 58.4598 31.1522 58.6513 13.972 58.3002C7.5856 58.17 4.95822 55.2987 5.63668 48.9661C4.94857 48.7082 4.26492 48.438 3.58608 48.1559C2.17905 47.5617 0.865908 46.8907 0.273922 45.4105C-0.169975 44.3 -0.0697753 41.6834 0.54114 40.8465C7.18698 31.7447 33.9526 39.0182 44.2847 35.372C46.5123 34.5855 48.3254 32.9484 49.1345 31.0941C50.029 29.0453 49.695 25.4619 48.678 23.5011C44.1188 15.6746 33.6416 20.6951 26.4379 17.8054C21.3694 15.7722 20.2764 10.5865 21.9484 5.7552C22.9283 2.92368 26.0355 1.36337 28.7446 0.265875Z" fill="url(#paint0_linear_0_11)" fill-opacity="0.34"/>
<path id="Vector_2" d="M121.706 37.7248C122.789 37.697 125.692 37.5251 126.642 37.831C133.857 40.1592 133.668 45.342 127.841 48.7053C126.141 48.8111 123.387 49.0397 121.806 48.493C116.109 46.5252 115.849 39.8497 121.706 37.7248Z" fill="url(#paint1_linear_0_11)" fill-opacity="0.34"/>
</g>
<defs>
<linearGradient id="paint0_linear_0_11" x1="55.172" y1="2.57315e-09" x2="55.172" y2="58.5657" gradientUnits="userSpaceOnUse">
<stop stop-color="#CAAB7E"/>
<stop offset="1" stop-color="#9A6B67"/>
</linearGradient>
<linearGradient id="paint1_linear_0_11" x1="124.781" y1="37.6516" x2="124.781" y2="48.8439" gradientUnits="userSpaceOnUse">
<stop stop-color="#CAAB7E"/>
<stop offset="1" stop-color="#9A6B67"/>
</linearGradient>
</defs>
</svg>
