<svg preserveAspectRatio="none" width="100%" height="100%" overflow="visible" style="display: block;" viewBox="0 0 272 93" fill="none" xmlns="http://www.w3.org/2000/svg">
<path id="&#228;&#186;&#145;1" d="M60.2614 0.124893L147.332 0.0648194C162.849 0.0538954 178.43 -0.21379 193.917 0.425263C202.763 0.791217 206.635 13.2227 196.846 16.1449C189.315 18.3952 180.753 16.0357 175.065 22.5791C171.673 26.4845 172.175 33.8745 176.183 37.2282C182.962 43.3238 193.825 40.5054 202.185 41.0298C222.134 41.0352 242.208 41.1554 262.135 41.718C274.263 42.0457 275.441 58.1531 264.376 60.327C257.663 61.6433 247.819 60.9169 240.806 60.9497L169.693 61.2118C161.342 61.2828 152.296 60.6765 144.118 61.2009C134.527 61.8181 133.394 70.5463 140.659 76.4125C152.819 77.6579 165.909 76.358 178.141 76.5983C185.454 76.7403 195.548 74.7193 201.209 79.8918C204.868 86.8613 201.236 92.5691 193.487 92.6838C182.58 92.8531 171.667 92.7767 160.754 92.7603L98.9344 92.6838L69.0698 92.7112C61.2605 92.7603 39.5847 95.7917 44.0794 81.0334C46.8203 72.0375 61.2681 75.7134 68.1749 74.9323C77.6677 73.8236 99.1308 79.4276 102.25 66.6356C106.832 47.8463 76.0442 52.0084 65.1531 51.9264L23.8362 51.5987C18.1734 51.5714 3.40551 53.4449 1.04908 46.9506C-5.25619 29.5705 18.535 32.9187 27.8336 33.0389C38.5965 33.1208 49.36 33.1099 60.1229 33.0115C67.7211 33.0115 81.4055 35.5678 83.9991 26.408C84.5243 24.611 84.2838 22.672 83.3349 21.0607C76.9222 10.093 49.7341 25.0807 53.6998 5.55408C54.2162 3.01426 57.9077 1.09713 60.2614 0.124893Z" fill="url(#paint0_linear_0_41)" fill-opacity="0.34"/>
<defs>
<linearGradient id="paint0_linear_0_41" x1="136" y1="7.13461e-09" x2="136" y2="93" gradientUnits="userSpaceOnUse">
<stop stop-color="#CAAB7E"/>
<stop offset="1" stop-color="#9A6B67"/>
</linearGradient>
</defs>
</svg>
