<svg preserveAspectRatio="none" width="100%" height="100%" overflow="visible" style="display: block;" viewBox="0 0 229 84.2461" fill="none" xmlns="http://www.w3.org/2000/svg">
<g id="&#228;&#186;&#145;5">
<path id="Vector" d="M106.187 0.222093L136.522 0.184479C142.292 0.165678 148.344 -0.206565 154.075 0.298033C155.848 0.454075 157.721 0.829703 159.354 1.55727C160.866 2.23107 161.727 3.59597 162.227 5.12819C162.788 6.84728 162.945 9.35672 162.004 10.9724C158.379 17.1938 146.591 13.6853 140.722 15.3679C139.192 15.8067 137.339 16.6279 136.608 18.1327C136.144 19.0881 136.302 20.1458 136.662 21.1046C137.254 22.6838 138.191 24.1469 139.818 24.7838C143.537 26.2397 150.325 25.355 154.343 25.3388C161.311 25.311 203.999 24.1239 208.197 26.3224C209.664 27.0906 210.664 28.6386 211.074 30.2107C211.502 31.8471 211.334 33.6165 210.422 35.0649C206.727 40.9388 193.67 36.4535 187.875 38.2519C186.556 38.661 185.755 39.439 185.17 40.6786C184.623 41.8379 184.729 42.4436 185.109 43.5814C190.095 48.853 210.21 41.4175 205.4 56.2264C203.968 60.637 196.319 60.2196 192.463 60.2271C186.264 60.2346 179.79 60.2497 173.457 60.2647L112.625 60.4753C104.064 60.5279 95.3546 60.3926 86.7911 60.6219C84.8787 60.6708 83.0671 63.1073 82.8671 64.946C82.7494 66.0853 83.107 67.2208 83.8549 68.0894C88.3199 73.297 103.644 65.8484 109.466 73.4926C110.303 75.6132 110.464 77.9746 109.528 80.0915C108.903 81.509 107.645 82.9716 106.129 83.4379C101.53 84.8479 47.0523 84.1185 40.015 83.4604C39.0539 83.3702 38.1966 83.1822 37.3578 82.6821C35.5199 81.5804 34.0753 79.7192 33.6974 77.591C33.3676 75.6809 33.8632 73.7257 35.0611 72.2029C37.6593 68.9504 39.5333 69.8904 43.3697 69.5295C48.398 69.0519 58.1978 71.3531 61.9838 67.2396C63.5694 65.5175 62.6892 61.2536 60.0139 60.3963C56.5381 59.2796 52.5502 59.5428 48.8981 59.3172C35.3804 58.4336 21.8668 58.9224 8.34114 58.8622C6.75064 58.7494 5.10449 57.9899 3.80991 57.1552C0.034638 54.7676 -1.28848 48.0408 1.46402 44.5113C4.98681 39.9925 11.3751 40.6648 16.3576 40.6016C24.5669 40.4978 32.892 40.9983 41.0475 40.4282C43.7649 40.0064 47.9431 38.9344 46.9282 35.2973C44.9196 28.0964 51.4264 25.1516 57.4586 25.4497C59.6605 25.5588 62.2241 25.502 64.4474 25.4963L91.1855 25.4392C96.0953 25.44 107.882 27.0594 108.964 21.3088C110.808 11.97 94.1104 16.447 88.6309 15.2217C82.2854 13.8026 80.5885 11.765 81.3653 5.01539C85.9533 -1.92114 98.2502 0.429271 106.187 0.222093ZM166.434 45.8608C171.532 43.4596 169.685 38.7392 165.71 38.3061C159.541 37.6334 150.532 37.8485 144.331 38.053C136.591 42.3831 143.3 46.4868 149.802 46.048C154.891 45.7043 161.254 45.9198 166.434 45.8608Z" fill="url(#paint0_linear_0_8)" fill-opacity="0.34"/>
<path id="Vector_2" d="M218.975 46.4857C222.546 44.8425 226.772 46.4285 228.38 50.0148C229.988 53.6019 228.36 57.8132 224.757 59.3849C221.204 60.9378 217.065 59.336 215.479 55.7978C213.893 52.2596 215.453 48.1047 218.975 46.4857Z" fill="url(#paint1_linear_0_8)" fill-opacity="0.34"/>
</g>
<defs>
<linearGradient id="paint0_linear_0_8" x1="105.649" y1="5.57698e-08" x2="105.649" y2="84.2461" gradientUnits="userSpaceOnUse">
<stop stop-color="#CAAB7E"/>
<stop offset="1" stop-color="#9A6B67"/>
</linearGradient>
<linearGradient id="paint1_linear_0_8" x1="221.93" y1="45.8367" x2="221.93" y2="59.9778" gradientUnits="userSpaceOnUse">
<stop stop-color="#CAAB7E"/>
<stop offset="1" stop-color="#9A6B67"/>
</linearGradient>
</defs>
</svg>
