<svg preserveAspectRatio="none" width="100%" height="100%" overflow="visible" style="display: block;" viewBox="0 0 209 46" fill="none" xmlns="http://www.w3.org/2000/svg">
<path id="&#228;&#186;&#145;6" d="M5.08311 0.1721C11.4963 -0.156668 20.2423 0.0865478 26.829 0.0873151L67.1716 0.0930751L100.808 0.0681384C106.861 0.0566296 112.925 0.10612 119.065 0.132974C127.127 -1.00525 128.849 11.5516 121.754 12.1267C108.302 12.9772 94.7182 12.175 81.2021 12.5494C73.6694 12.7581 76.2528 23.1099 78.5267 24.6007C80.5977 24.8638 83.0229 23.2906 84.7836 22.2567C114.492 21.8723 144.242 22.0626 173.954 22.1324C180.322 22.1474 201.388 20.9984 206.055 22.7113C207.523 23.2495 208.353 23.7682 209 25.2076C208.927 27.4472 207.277 28.9514 205.052 28.9468C198.186 28.9337 191.318 28.9207 184.451 28.913L141.379 28.9107C133.973 28.8984 123.494 28.5881 116.359 29.1179C114.467 30.7069 111.984 33.1475 112.915 35.8574C114.069 37.3843 115.671 38.0782 117.499 38.486C120.59 39.1762 123.936 38.9088 127.085 38.8885C133.858 38.8447 153.169 37.9102 158.973 39.0914C160.249 39.3511 162.076 39.8203 162.79 41.0207C163.151 41.6276 163.209 42.2218 162.995 42.8931C162.699 43.8269 161.982 44.7491 161.063 45.1182C156.66 46.8867 78.6918 45.4539 68.4256 45.422C48.2389 45.3599 27.9929 45.8099 7.81513 45.4446C6.38573 45.4186 4.90462 45.3299 3.58974 44.7165C1.99335 43.9719 1.1626 42.681 0.549018 41.0767C-0.0136264 39.6055 -0.292457 37.9494 0.449437 36.49C1.44986 34.5228 3.78738 33.4697 5.83841 32.9883C11.3963 31.6828 28.515 32.6143 35.1978 32.6618C38.3775 32.6841 41.8411 32.9656 44.911 32.0258C46.4683 31.5489 48.0145 30.6405 48.7342 29.1148C49.2581 28.0042 49.3052 26.4363 48.81 25.3066C48.0616 23.599 45.6789 22.9204 44.0829 22.2978C44.8776 21.2746 46.0213 19.8947 46.3338 18.6805C47.8314 12.0166 39.5963 12.4754 35.4035 12.3277C25.9603 11.9947 14.6124 13.2039 5.42093 12.0031C-1.31204 11.1239 -2.0681 3.63356 5.08311 0.1721Z" fill="url(#paint0_linear_0_14)" fill-opacity="0.34"/>
<defs>
<linearGradient id="paint0_linear_0_14" x1="104.5" y1="2.54993e-09" x2="104.5" y2="46" gradientUnits="userSpaceOnUse">
<stop stop-color="#CAAB7E"/>
<stop offset="1" stop-color="#9A6B67"/>
</linearGradient>
</defs>
</svg>
