<svg preserveAspectRatio="none" width="100%" height="100%" overflow="visible" style="display: block;" viewBox="0 0 356 76" fill="none" xmlns="http://www.w3.org/2000/svg">
<path id="&#228;&#186;&#145;7" d="M60.2874 0.376121C115.377 -0.617664 170.916 0.721386 226.035 0.294522C229.198 0.270164 235.911 0.594124 237.477 3.62602C252.111 31.9385 192.421 12.5262 182.084 22.4148C177.465 26.4051 180.785 35.619 186.588 36.3637C192.937 37.1778 200.172 36.8892 206.636 36.8849C220.3 36.9276 233.963 36.8088 247.626 36.5305C281.526 36.0318 315.917 36.3265 349.835 36.3558C352.834 36.3582 356.208 38.8469 355.99 42.2393C355.838 44.5399 354.375 46.5439 352.233 47.3775C349.471 48.4834 333.465 48.1369 329.568 48.1314L268.427 48.0973C259.99 48.1003 251.195 47.7368 242.855 48.0796C232.36 48.5114 231.031 64.2335 243.474 64.0435C248.105 63.9723 253.301 64.0064 257.981 63.9558C263.377 64.007 279.104 61.8769 278.837 70.1335C276.931 73.8845 272.421 75.9994 268.312 76C232.913 76.0048 197.495 75.0975 162.12 74.6774L107.48 74.0155C98.5332 73.9686 65.8412 75.3241 59.3222 73.0138C57.0097 72.1947 55.6804 71.1662 54.6303 68.9607C54.9034 60.441 69.5196 61.6492 75.2313 61.7728C76.3967 61.0275 79.1098 59.4125 79.5286 58.0887C82.7881 47.5718 70.9338 47.9925 64.2085 47.9523C45.7138 47.8415 27.3284 48.3987 8.8276 48.0948C-1.35146 47.928 -3.11171 38.294 5.56204 35.9776C9.15536 35.0185 19.1827 35.5215 23.4862 35.5282L56.5727 35.4746C66.0841 35.4058 75.298 34.5655 85.0521 34.5436C93.9565 34.0917 104.166 36.0641 112.724 33.3062C117.337 31.8186 118.879 23.7398 117.058 20.5599C112.239 12.139 95.6683 15.4717 87.7411 14.993C78.9217 14.2867 66.3814 16.8923 58.0233 13.8762C49.4649 10.7883 53.2525 3.22229 60.2874 0.376121Z" fill="url(#paint0_linear_0_15)" fill-opacity="0.34"/>
<defs>
<linearGradient id="paint0_linear_0_15" x1="178" y1="6.69952e-09" x2="178" y2="76" gradientUnits="userSpaceOnUse">
<stop stop-color="#CAAB7E"/>
<stop offset="1" stop-color="#9A6B67"/>
</linearGradient>
</defs>
</svg>
