<svg preserveAspectRatio="none" width="100%" height="100%" overflow="visible" style="display: block;" viewBox="0 0 240.362 59.3312" fill="none" xmlns="http://www.w3.org/2000/svg">
<g id="&#228;&#186;&#145;8">
<path id="Vector" d="M48.6503 0.0654261L132.562 0.0760312C147.629 0.0180546 162.795 -0.165773 177.833 0.38854C183.186 0.585802 187.824 3.36232 188.17 9.13381C188.34 11.8248 187.378 14.4648 185.512 16.4106C181.92 20.196 176.617 19.6848 171.802 19.7181C156.976 19.822 142.114 19.2797 127.302 19.8376C125.202 21.0586 124.417 21.4991 122.706 23.121C120.903 24.8278 119.539 27.7542 119.758 29.9453C121.745 49.7987 185.696 31.546 198.005 43.3789C199.575 44.8841 200.275 46.3823 200.352 48.3542C200.451 50.8437 199.122 54.1335 197.496 55.7731C192.639 60.6552 173.492 59.1082 166.203 59.0651L60.7447 58.8197C43.9754 58.8183 27.182 59.0658 10.4147 58.6373C4.32436 58.4867 1.27917 56.6803 0.109739 50.6747C-0.723851 46.3915 3.33238 39.8897 7.50245 39.6981C23.8448 38.9267 41.621 39.505 57.9145 39.3297C65.2846 39.2498 85.6012 41.496 88.9808 35.0691C102.938 8.52364 47.8336 26.0736 38.8105 16.4523C34.5881 11.9499 35.351 6.9109 39.0466 3.3411C42.2233 0.314298 44.6774 0.322078 48.6503 0.0654261Z" fill="url(#paint0_linear_0_19)" fill-opacity="0.34"/>
<path id="Vector_2" d="M217.88 39.5022C221.252 39.3452 226.654 38.8312 229.843 39.6224C242.958 42.8761 243.898 53.034 232.162 58.8091C224.653 59.0799 207.097 61.1974 210.378 47.7426C211.509 43.1003 213.913 41.5031 217.88 39.5022Z" fill="url(#paint1_linear_0_19)" fill-opacity="0.34"/>
</g>
<defs>
<linearGradient id="paint0_linear_0_19" x1="100.179" y1="0" x2="100.179" y2="59.3312" gradientUnits="userSpaceOnUse">
<stop stop-color="#CAAB7E"/>
<stop offset="1" stop-color="#9A6B67"/>
</linearGradient>
<linearGradient id="paint1_linear_0_19" x1="225.168" y1="39.1929" x2="225.168" y2="59.0894" gradientUnits="userSpaceOnUse">
<stop stop-color="#CAAB7E"/>
<stop offset="1" stop-color="#9A6B67"/>
</linearGradient>
</defs>
</svg>
