<svg preserveAspectRatio="none" width="100%" height="100%" overflow="visible" style="display: block;" viewBox="0 0 289 172.058" fill="none" xmlns="http://www.w3.org/2000/svg">
<g id="&#228;&#186;&#145;10">
<path id="Vector" d="M90.0723 0.0607298C97.9759 0.435559 105.323 0.230352 113.206 0.226215L153.369 0.167881C155.82 0.167881 169.977 -0.22267 171.436 0.328817C176.605 0.509612 179.872 0.415698 184.675 2.61668C187.031 5.09568 188.661 7.47333 188.526 11.0826C188.421 13.8922 187.594 16.6508 185.43 18.5713C184.044 19.8021 182.291 20.6068 180.485 20.9957C169.723 23.3138 136.078 18.6793 129.244 22.9704C125.922 25.056 125.081 28.4096 124.357 31.9766C129.513 49.9362 146.509 33.4247 152.693 48.3789C153.737 50.9034 153.244 54.4912 151.9 56.8974C150.412 59.5779 147.887 61.5269 144.917 62.2865C141.046 63.2724 132.747 62.8612 128.344 62.8781L103.002 63.0597C99.5034 63.0854 94.775 62.9083 91.5434 63.8607C87.259 65.1234 84.8499 72.8467 86.9487 76.3715C91.1016 83.3468 109.325 81.2116 116.081 81.1599C128.661 81.0888 141.24 80.9436 153.819 80.7243C162.303 80.5803 175.856 78.4331 179.259 87.7335C181.049 92.627 178.378 99.002 173.222 100.574C163.819 103.502 150.172 96.101 147.055 109.915C149.918 121.107 157.582 118.801 167.12 118.727L185.433 118.704L255.882 118.327C262.655 118.325 269.37 118.304 276.19 118.427C281.885 118.53 286.773 119.507 288.572 125.823C289.236 128.154 289.203 131.487 287.931 133.583C286.458 135.993 284.086 137.717 281.34 138.374C278.519 139.028 265.936 138.885 262.418 138.891L210.942 138.939C202.749 138.921 193.569 138.4 185.48 139.369C180.858 139.922 177.593 145.265 178.834 149.932C182.674 164.382 213.199 145.866 207.051 167.991C206.669 169.093 204.103 171.286 202.963 171.359C193.353 171.967 188.846 172.285 178.469 171.871C162.713 171.242 143.345 173.32 127.886 170.627C124.655 168.647 123.446 162.694 125.202 160.108C132.024 150.06 158.819 163.837 157.799 146.758C157.336 139.004 139.016 141.272 134.088 141.382L105.716 141.853C98.7719 141.957 85.48 143.477 83.4784 134.281C82.1971 128.395 85.2781 122.568 92.3163 121.219C100.217 119.705 117.812 123.993 123.426 117.41C128.045 111.993 123.29 102.66 116.067 103.074C81.3035 102.193 46.5602 103.177 11.7963 102.941C3.30802 102.883 -3.39049 94.3981 1.85256 86.5317C6.32652 79.8195 13.0081 81.3362 19.7364 81.2849C31.8873 81.1194 44.1772 81.6911 56.2826 80.8608C57.9441 80.747 61.4574 78.3528 62.2431 76.7464C66.5383 67.964 60.4471 63.2447 51.6076 63.0804C41.8848 62.8996 21.6966 66.3918 25.4358 49.743C27.5358 40.3921 37.3467 41.7706 44.72 41.5402C56.5867 41.2762 68.4567 41.1839 80.3263 41.2634C86.6231 41.2597 93.1553 41.5559 99.5535 40.7276C105.22 39.9937 109.347 34.5247 107.697 28.7893C105.082 19.6966 93.5181 21.884 86.4758 21.6817C79.6308 21.4988 71.989 23.1624 68.7306 15.0436C66.9661 10.6474 68.2544 6.48867 71.2671 3.07632C76.4584 -0.696792 83.7569 0.0640396 90.0723 0.0607298Z" fill="url(#paint0_linear_0_22)" fill-opacity="0.34"/>
<path id="Vector_2" d="M199.304 81.228C206.111 81.0033 239.391 80.1349 243.793 82.2168C246.36 83.4306 248.403 85.8898 249.328 88.5607C250.064 90.6873 250.054 92.8349 249.078 94.8728C247.257 98.6753 245.076 100.258 241.198 101.637C235.309 102.085 201.021 102.779 196.682 100.998C194.122 99.9463 192.123 97.7515 191.202 95.1529C190.243 92.3914 190.439 89.36 191.746 86.7453C193.441 83.3346 196.008 82.3314 199.304 81.228Z" fill="url(#paint1_linear_0_22)" fill-opacity="0.34"/>
</g>
<defs>
<linearGradient id="paint0_linear_0_22" x1="144.5" y1="5.20732e-09" x2="144.5" y2="172.058" gradientUnits="userSpaceOnUse">
<stop stop-color="#CAAB7E"/>
<stop offset="1" stop-color="#9A6B67"/>
</linearGradient>
<linearGradient id="paint1_linear_0_22" x1="220.225" y1="80.8569" x2="220.225" y2="102.153" gradientUnits="userSpaceOnUse">
<stop stop-color="#CAAB7E"/>
<stop offset="1" stop-color="#9A6B67"/>
</linearGradient>
</defs>
</svg>
