<svg preserveAspectRatio="none" width="100%" height="100%" overflow="visible" style="display: block;" viewBox="0 0 184 67.3876" fill="none" xmlns="http://www.w3.org/2000/svg">
<g id="&#228;&#186;&#145;2">
<path id="Vector" d="M35.7332 23.2633C49.0427 22.8657 62.1708 23.3887 75.4694 23.6484L120.672 24.1615C107.828 51.3704 169.182 24.812 158.038 47.4778C155.882 51.8731 125.778 48.6388 120.849 49.4837C119.848 49.6547 114.484 49.748 113.333 51.8006C108.621 62.8719 125.659 56.2737 129.919 60.0315C135.445 69.0296 118.739 67.2829 114.276 67.1948C78.6571 66.6609 42.8757 67.682 7.27161 66.7957C-2.16498 66.5572 -3.43643 51.106 9.56778 50.9091C13.9632 50.8469 20.9672 50.6291 25.6098 50.6343C35.6109 50.7328 45.6125 50.6862 55.6125 50.4944C58.8427 48.3071 61.0336 46.2649 59.4486 41.797C58.4544 39.506 55.6482 38.7389 53.5153 38.3346C46.2676 36.961 24.6287 41.543 30.4095 27.4238C31.4151 24.966 33.4738 24.1786 35.7332 23.2633Z" fill="url(#paint0_linear_0_26)" fill-opacity="0.34"/>
<path id="Vector_2" d="M76.0811 0.455436C85.9655 0.0573645 140.954 -0.651707 146.21 1.3371C148.652 2.26075 150.6 4.33403 151.487 6.76497C152.466 9.42604 152.518 13.0564 151.15 15.591C149.569 18.5169 146.915 19.7713 143.924 20.7576C141.929 20.7768 139.596 20.7016 137.647 20.8483C122.72 21.9695 108.098 21.8901 93.1495 21.9461C91.1695 20.838 94.0824 18.066 91.439 14.2646C86.0329 10.1382 76.2573 16.6162 71.8309 9.03317C69.601 5.21157 72.7276 2.19648 76.0811 0.455436Z" fill="url(#paint1_linear_0_26)" fill-opacity="0.34"/>
<path id="Vector_3" d="M173.852 37.6661C184.69 37.1633 187.386 46.094 179.31 49.5564C168.824 50.111 164.849 42.8027 173.852 37.6661Z" fill="url(#paint2_linear_0_26)" fill-opacity="0.34"/>
</g>
<defs>
<linearGradient id="paint0_linear_0_26" x1="79.6994" y1="23.1191" x2="79.6994" y2="67.3874" gradientUnits="userSpaceOnUse">
<stop stop-color="#CAAB7E"/>
<stop offset="1" stop-color="#9A6B67"/>
</linearGradient>
<linearGradient id="paint1_linear_0_26" x1="111.641" y1="-4.41651e-09" x2="111.641" y2="21.9461" gradientUnits="userSpaceOnUse">
<stop stop-color="#CAAB7E"/>
<stop offset="1" stop-color="#9A6B67"/>
</linearGradient>
<linearGradient id="paint2_linear_0_26" x1="176.428" y1="37.6457" x2="176.428" y2="49.5862" gradientUnits="userSpaceOnUse">
<stop stop-color="#CAAB7E"/>
<stop offset="1" stop-color="#9A6B67"/>
</linearGradient>
</defs>
</svg>
