<svg preserveAspectRatio="none" width="100%" height="100%" overflow="visible" style="display: block;" viewBox="0 0 193 103" fill="none" xmlns="http://www.w3.org/2000/svg">
<path id="&#228;&#186;&#145;3" d="M53.1254 0.31C80.2312 -0.574221 108.354 0.746414 135.524 0.434425C139.576 0.388008 144.418 1.75085 144.827 6.28268C146.352 23.1803 122.144 9.87359 115.745 18.6789C114.584 20.2811 114.129 22.2881 114.492 24.2319C115.868 31.5389 127.15 29.7427 132.891 29.7537L170.167 29.7887C179.688 29.8215 190.695 26.6205 193 38.427C192.453 40.445 191.842 42.2101 190.34 43.7807C189.082 45.0884 187.412 45.9307 185.608 46.1689C183.407 46.4626 177.819 46.3249 175.273 46.3211L157.998 46.3884C133.835 46.5326 107.807 46.0487 83.931 46.654C79.9523 48.9289 79.7726 49.9546 78.4311 54.1509C78.5152 54.4419 78.6069 54.7318 78.6986 55.021C79.4363 57.281 80.9383 59.8553 83.3118 60.4192C87.73 61.4689 94.7244 61.0572 99.4407 61.0348L133.04 60.9903C138.876 60.9792 144.934 60.7939 150.759 61.0405C156.779 61.2954 158.407 63.8191 159.859 69.2564C157.153 81.3924 147.464 76.762 138.246 77.9936C133.648 78.6073 130.518 84.1851 131.981 87.3963C136.369 97.0238 156.045 89.2986 163.926 93.6501L164.312 93.8655C166.41 97.3636 165.871 102.215 161.113 102.686C157.505 103.044 153.228 102.876 149.555 102.891L125.025 102.893L96.2646 102.842C91.6017 102.84 86.8127 103.189 82.1728 102.855C80.4682 102.733 78.431 102.416 77.1048 101.271C76.0652 100.375 75.683 98.9361 75.6869 97.6132C75.6907 96.3275 76.1379 95.0054 77.0857 94.1056C80.7816 90.5957 101.627 92.6833 107.36 92.4946C110.066 92.4052 113.017 91.8672 114.893 89.7373C116.777 87.5995 116.732 85.4228 116.548 82.775C114.27 79.1042 112.302 77.8997 107.868 77.8053C103.125 77.7049 98.3667 77.7661 93.6198 77.7752L53.4274 77.733C46.5554 77.7364 39.6146 77.9274 32.7541 77.7182C26.8835 77.5394 24.896 74.9909 23.4284 69.7784C23.6844 68.4205 23.952 66.9918 24.5788 65.7485C29.1843 56.6118 46.0624 63.267 54.0389 60.515C56.0455 59.8226 57.6278 58.4525 58.4801 56.4988C59.1337 54.9967 59.5847 52.8112 58.912 51.2463C58.01 49.1522 56.2786 47.7494 54.1421 47.0196C50.4615 45.7629 45.8865 46.2115 42.0339 46.2267C35.7467 46.2518 8.74035 47.3974 4.2877 45.2375C2.41109 44.3266 0.993116 42.8557 0.370126 40.8491C-0.287261 38.7223 -0.0617638 35.8497 0.989292 33.8925C2.04417 31.9278 3.8902 30.856 5.99996 30.3107C11.5381 28.879 22.2856 29.7187 28.3243 29.7575L61.2282 29.8279C65.6311 29.8306 78.0794 31.0888 79.4439 25.4905C83.4608 9.00611 58.2126 18.3996 50.6221 14.7231C43.0506 11.0538 44.8737 2.44902 53.1254 0.31Z" fill="url(#paint0_linear_0_30)" fill-opacity="0.34"/>
<defs>
<linearGradient id="paint0_linear_0_30" x1="96.5" y1="-3.33469e-09" x2="96.5" y2="103" gradientUnits="userSpaceOnUse">
<stop stop-color="#CAAB7E"/>
<stop offset="1" stop-color="#9A6B67"/>
</linearGradient>
</defs>
</svg>
