<svg preserveAspectRatio="none" width="100%" height="100%" overflow="visible" style="display: block;" viewBox="0 0 50.7642 35.5496" fill="none" xmlns="http://www.w3.org/2000/svg">
<g id="Vector">
<path d="M34.0319 0.903346C33.8737 0.715239 33.6776 0.561881 33.4563 0.453049C33.235 0.344218 32.9932 0.282301 32.7463 0.271245C32.4995 0.260189 32.2531 0.300237 32.0227 0.388836C31.7924 0.477435 31.5832 0.612642 31.4085 0.785835C31.2338 0.959028 31.0974 1.16641 31.008 1.39475C30.9187 1.6231 30.8783 1.8674 30.8894 2.11209C30.9006 2.35677 30.963 2.59646 31.0728 2.81589C31.1826 3.03531 31.3373 3.22966 31.527 3.38652L44.307 16.0706H2.06457C1.60856 16.0946 1.17921 16.291 0.864978 16.6195C0.550748 16.948 0.375586 17.3834 0.375586 17.8361C0.375586 18.2888 0.550748 18.7243 0.864978 19.0527C1.17921 19.3812 1.60856 19.5777 2.06457 19.6017H44.307L31.507 32.2708C31.1848 32.6053 31.0051 33.05 31.0051 33.5124C31.0051 33.9749 31.1848 34.4196 31.507 34.754C31.6713 34.9174 31.8665 35.047 32.0814 35.1355C32.2963 35.2239 32.5267 35.2694 32.7594 35.2694C32.9921 35.2694 33.2226 35.2239 33.4375 35.1355C33.6524 35.047 33.8476 34.9174 34.0119 34.754L49.8428 19.0603C50.0113 18.8996 50.1453 18.7067 50.2368 18.4934C50.3284 18.2801 50.3756 18.0506 50.3756 17.8188C50.3756 17.5869 50.3284 17.3574 50.2368 17.1441C50.1453 16.9308 50.0113 16.7379 49.8428 16.5772L34.0319 0.903346Z" fill="var(--fill-0, #DF9060)"/>
<path d="M40.1097 7.63141C39.9492 7.48075 39.7514 7.23905 39.5683 7.05509C38.8013 6.2842 38.531 5.98456 37.8412 5.28284C36.8185 4.24235 33.7137 1.22448 33.8722 1.06442C33.8723 1.06441 33.8723 1.06441 33.8723 1.06441C33.8738 1.06284 33.8757 1.06154 33.8779 1.06053C33.9189 1.04074 34.2134 1.26672 34.2864 1.27073C34.3593 1.27466 34.5509 1.02324 34.9348 1.37895C35.4897 1.89636 36.7251 3.23419 37.0148 3.51642C37.2129 3.70935 37.4747 3.92879 37.7294 4.17412C38.5505 4.96515 38.9595 5.39993 39.7434 6.06807C40.0065 6.38628 40.2695 6.70449 40.5326 7.02271C40.9266 7.38666 41.4657 7.99683 41.699 8.224C41.8905 8.41036 42.0244 8.49769 42.2232 8.69266C42.4463 8.9112 42.7624 9.2736 43.1695 9.66982C43.8369 10.3195 44.0138 10.3764 44.4182 10.7622C44.8375 11.1623 45.4453 11.8292 45.9912 12.3287C46.0636 12.3874 46.1359 12.4461 46.2083 12.5049C46.1759 12.4432 46.1434 12.3816 46.111 12.3199C46.3823 12.5752 46.4658 12.7184 46.7083 12.9599C46.9936 13.244 47.1681 13.3597 47.3604 13.5506C47.5179 13.707 47.7086 13.942 47.9144 14.1432C48.2144 14.4365 48.1824 14.3385 48.3489 14.4912C48.4153 14.5522 49.6164 15.7063 49.6834 15.7721C49.9151 16.0007 50.041 16.1437 50.1473 16.27C50.3023 16.4498 50.4228 16.6119 50.5823 16.9578C50.587 16.9685 50.5916 16.9792 50.5961 16.9899C50.706 17.2508 50.7639 17.5344 50.7641 17.8188C50.7647 18.1025 50.7078 18.3865 50.5978 18.6483C50.4875 18.9117 50.3236 19.1522 50.1202 19.3511C49.5121 19.9735 48.914 20.5959 48.3441 21.1763C47.8868 21.6421 47.4004 22.1189 46.9309 22.5699C47.5429 21.731 45.8412 23.237 46.6255 22.823C46.0854 23.3068 45.7698 23.7178 45.274 24.1927C44.9532 24.4999 44.7098 24.6908 44.2602 25.1378C43.4625 25.9312 42.6602 26.8698 42.301 26.967C41.3859 27.9198 40.5266 28.6777 40.3029 29.1281C40.068 29.3749 39.3801 29.9207 39.0996 30.1803C38.8344 30.4258 36.8352 32.3461 36.5115 32.6636C36.1878 32.9811 35.6222 33.538 35.361 33.817C35.0394 34.1602 34.9181 34.5084 34.2126 34.9565C34.1963 34.9674 34.1794 34.9784 34.1621 34.9892C33.9553 35.1877 33.7437 35.3118 33.5446 35.3958C33.2714 35.5088 33.0188 35.5511 32.7594 35.5495C32.5158 35.546 32.261 35.5033 31.9799 35.3821C31.9009 35.3476 31.8201 35.3065 31.7384 35.2569C31.5757 35.1542 31.5784 35.1138 31.4917 35.0462C31.4482 35.0107 31.3978 34.9682 31.3442 34.9177C31.1807 34.759 30.9939 34.52 30.8841 34.2302C30.7719 33.9373 30.7635 33.6811 30.7677 33.5124C30.7742 33.3158 30.7891 33.2247 30.7322 33.2583C30.7706 32.8128 30.9597 32.377 31.2656 32.0383C31.2747 32.0289 31.2781 32.0253 31.2816 32.0216C31.3914 31.9383 31.5013 31.8551 31.6111 31.7719C31.7453 31.6113 31.8794 31.4508 32.0135 31.2903C31.9352 31.5589 32.9205 30.4709 32.5274 30.7502C33.0838 30.2391 33.6402 29.728 34.1966 29.2168C34.2303 29.4007 35.3873 28.0633 35.2227 28.108C35.2842 28.0473 35.3457 27.9867 35.4072 27.926C35.9736 27.4231 36.4437 26.9106 37.1183 26.2817C37.7928 25.6528 37.7419 25.7244 37.9911 25.5777C38.1424 25.4222 38.2937 25.2667 38.4451 25.1112C39.117 24.172 39.2113 24.5532 40.4915 23.0759C41.0202 22.7248 42.066 21.5992 42.7633 20.8568C42.8445 20.7704 42.8292 20.7521 42.9362 20.6359C43.1978 20.3521 43.9187 19.6815 43.8409 19.6507C43.9331 19.5706 44.0254 19.4905 44.1176 19.4104L44.307 19.8708C44.0882 19.8566 43.8695 19.8424 43.6508 19.8281C43.3724 19.8421 43.0939 19.856 42.8155 19.8699C42.8169 19.8939 42.8183 19.9178 42.8197 19.9417C42.259 19.8602 41.378 19.8915 40.9434 19.872C40.857 19.8681 40.8383 19.835 40.5695 19.826C40.2553 19.8154 39.6698 19.8251 39.2954 19.8148C39.1498 19.8514 39.0043 19.8879 38.8587 19.9245C38.1892 19.9443 37.9538 19.8478 37.5607 19.8403C37.4899 19.839 36.1984 19.846 36.1288 19.848C35.5591 19.8643 35.7205 19.9466 34.073 19.9289C33.7796 19.9258 33.5423 19.8973 33.2771 19.8962C32.8086 19.8941 31.397 19.9586 31.286 20.0182C30.7178 19.9436 29.1976 19.9741 28.7498 19.9526C28.6147 19.9459 28.5842 19.8984 28.1688 19.8883C27.832 19.8801 26.9647 19.9181 26.5376 19.9117C26.0842 19.9048 25.9223 19.8649 25.7192 19.8621C25.5273 19.8594 25.3504 19.8917 25.0888 19.8915C24.2724 19.8904 23.5331 19.8385 22.8879 19.8375C21.9547 19.836 21.1304 19.9314 20.3496 19.9738C20.1558 19.9676 19.9654 19.9471 19.7622 19.947C17.2487 19.944 14.4133 19.9264 11.8923 19.9059C10.722 19.8966 7.81162 19.767 8.58841 19.9832C8.18169 20.021 5.22442 19.9339 4.66191 19.9326C4.09956 19.9313 3.65376 19.97 3.21175 19.9706C2.80261 19.9711 2.4306 19.9688 2.06457 19.9664L2.04542 19.9659C1.51712 19.934 1.00523 19.7155 0.604892 19.3016C0.26997 18.9531 0.0121561 18.4496 0.000297636 17.8361C-6.89328e-05 17.814 -9.92715e-05 17.7918 0.000219792 17.7694C-0.00444815 17.2572 0.214272 16.7201 0.413964 16.483C0.457376 16.428 0.505225 16.3753 0.55707 16.325C0.781404 16.1081 1.07502 15.9344 1.43474 15.8093C1.60904 15.7488 1.81666 15.7019 2.04456 15.6901L2.06457 15.6896C3.01864 15.6901 4.34155 15.681 5.08176 15.6874C5.24357 15.6889 5.30039 15.7279 5.53181 15.7401C6.433 15.7877 7.44313 15.7836 7.2644 15.6591C8.41948 15.7298 9.488 15.6653 10.5584 15.6613C12.8218 15.6533 16.9447 15.6823 18.9164 15.63C20.1597 15.597 20.1278 15.5412 21.9583 15.5894C22.3646 15.6001 22.7691 15.6145 23.262 15.6272C24.4171 15.6572 25.4769 15.7604 26.3574 15.6361C27.6404 15.6683 28.6622 15.6454 29.6141 15.7517C29.7263 15.7262 29.8385 15.7008 29.9507 15.6753C30.108 15.6746 30.2653 15.674 30.4226 15.6734C30.4717 15.6977 30.5208 15.722 30.5698 15.7463C31.6967 15.7529 33.1263 15.6529 34.0801 15.6537C35.6793 15.6548 39.7983 15.6936 41.3147 15.7264C42.1198 15.7438 42.1631 15.6918 42.624 15.7988C42.8041 15.7913 42.9841 15.7839 43.1642 15.7765C43.2769 15.753 43.3896 15.7296 43.5023 15.7061C43.7607 15.7059 44.0312 15.708 44.307 15.7113L44.0539 16.3256C43.4744 15.7366 42.8689 15.107 42.3451 14.5875C41.072 13.325 39.1156 11.4741 37.8675 10.1757C37.5546 9.85007 37.1881 9.41822 36.8739 9.10717C36.4167 8.65443 36.2492 8.60119 35.6686 8.02705C34.668 7.03742 32.8734 5.12504 31.9243 4.19307C31.6432 3.91693 31.4914 3.80811 31.2962 3.6191L31.3183 3.63908C31.3176 3.63856 31.317 3.63804 31.3163 3.63752C31.0836 3.44861 30.9011 3.21694 30.7731 2.96583C30.6381 2.70112 30.5633 2.41479 30.5473 2.12768C30.5311 1.83534 30.5756 1.54188 30.6781 1.26561C30.7787 0.994344 30.9352 0.739308 31.1442 0.519269C31.2127 0.447238 31.2867 0.379004 31.3661 0.315342C31.5647 0.183596 31.7463 0.110917 31.8989 0.06675C32.4435 -0.0688599 32.6039 0.0356774 32.7546 0.0876182C32.8199 0.115485 32.8853 0.145716 32.9772 0.186164C33.0885 0.234032 33.2841 0.330369 33.4491 0.467722C33.7042 0.669769 33.8569 0.954398 33.8645 1.02738C33.8766 1.10901 33.6535 0.956154 33.6846 1.0637C33.5574 0.942263 33.4219 0.85537 33.2893 0.792739C33.0949 0.701546 32.9067 0.660669 32.7294 0.648614C32.5264 0.635625 32.3356 0.659733 32.1494 0.718053C31.9705 0.77494 31.794 0.864323 31.6267 1.00598C31.5608 1.06211 31.4966 1.12664 31.4364 1.20122C31.3723 1.29447 31.319 1.39507 31.2779 1.5004C31.2039 1.69026 31.1702 1.89554 31.18 2.09884C31.1894 2.30222 31.2423 2.50337 31.3338 2.68531C31.4254 2.86785 31.5557 3.03088 31.7136 3.16083L31.7333 3.17868C32.6198 4.05615 33.5063 4.93362 34.3928 5.8111C34.5098 5.96653 34.6267 6.12197 34.7437 6.27741C34.7437 6.27745 34.7436 6.2775 34.7436 6.27754C35.2976 6.87285 35.5927 7.0644 35.9153 7.36153C38.0686 9.34503 41.5282 12.8161 44.5327 15.8431L45.0859 16.3884L44.307 16.3911C42.4555 16.3772 40.7239 16.3622 39.3257 16.3569C38.3304 16.3532 35.0926 16.3908 34.4097 16.3454C34.2329 16.3336 34.1837 16.2905 33.9956 16.2887C32.3149 16.3143 30.6342 16.3399 28.9535 16.3655C25.4973 16.2986 21.9242 16.3539 18.4417 16.3642C12.953 16.3804 7.49616 16.3988 2.06457 16.4092L2.08236 16.4087C1.71678 16.4276 1.36165 16.5909 1.11138 16.8552C0.860579 17.1167 0.716805 17.4756 0.71864 17.8361C0.71806 18.1969 0.863227 18.5547 1.11407 18.8144C1.3648 19.0775 1.71925 19.2386 2.08274 19.2562L2.06457 19.2557C4.15162 19.2541 6.23525 19.2542 8.31584 19.2565C10.107 19.2586 12.3799 19.2263 14.1334 19.2471C14.8652 19.2558 15.1701 19.3249 16.1315 19.2734C16.1416 19.292 16.1517 19.3106 16.1618 19.3293C17.0008 19.3068 17.5369 19.2644 18.4775 19.2601C19.2696 19.2565 21.3653 19.2537 22.0653 19.2609C22.4283 19.2644 22.2931 19.2992 22.6315 19.2991C23.211 19.2985 24.4491 19.2504 25.2487 19.2504C25.9731 19.2504 27.1942 19.2905 27.7511 19.2847C29.7567 19.264 31.9413 19.2046 34.0786 19.2205C34.669 19.225 35.4284 19.2702 35.6133 19.2689C35.9744 19.2663 36.082 19.2224 36.3246 19.2168C37.5569 19.1883 39.4778 19.2404 40.6857 19.2425C41.8759 19.2445 43.0874 19.2442 44.307 19.243L45.178 19.24L44.5593 19.8566C42.5617 21.8378 40.5373 23.8522 38.5902 25.7715C36.827 27.5096 33.9081 30.4095 32.2602 31.9941C31.9185 32.3227 31.9605 32.2183 31.7027 32.4686C31.6988 32.4725 31.69 32.4818 31.6809 32.4917C31.4222 32.7865 31.3972 33.0137 31.356 33.1812C31.3345 33.2807 31.3213 33.3923 31.323 33.5124C31.3245 33.8363 31.4533 34.2293 31.746 34.5238C31.8722 34.6466 32.0326 34.7525 32.2098 34.8235C32.3828 34.8931 32.5716 34.9291 32.7594 34.9277C32.9484 34.9266 33.1361 34.8878 33.3064 34.8169C33.4831 34.7436 33.6407 34.6362 33.7684 34.5092C34.2193 34.0629 34.6238 33.6676 34.9197 33.3878C35.1138 33.2044 35.2779 33.0948 35.3913 32.9821C35.4487 32.9252 35.5605 32.7783 35.739 32.5976C37.3153 31.0022 38.4871 29.8616 40.0539 28.3208C43.0466 25.3775 46.466 21.9208 49.6172 18.8328C49.6285 18.822 49.6354 18.8154 49.6422 18.8087C49.782 18.6718 49.8847 18.5201 49.9562 18.3729C50.0562 18.1672 50.0957 17.9717 50.1083 17.8188C50.1225 17.6404 50.1041 17.5188 50.0935 17.4734C50.0723 17.3888 50.0418 17.3178 50.0016 17.2451C49.9291 17.1198 49.8361 16.9794 49.6342 16.7958C49.6051 16.7685 49.5792 16.7441 49.5524 16.7186C48.1022 15.3382 46.2253 13.4023 44.8555 12.0798C44.1788 11.4263 43.2161 10.5615 42.5488 9.91983C42.0159 9.40732 40.7934 8.16038 40.5411 7.94952C40.3876 7.82114 40.284 7.79468 40.1097 7.63141ZM43.751 25.5837C43.7836 25.4294 42.8513 26.455 43.2528 26.1225C43.3432 26.0476 43.7427 25.6236 43.751 25.5837ZM16.3984 19.7953C16.4111 19.82 16.4238 19.8448 16.4365 19.8695C16.6182 19.8592 16.7999 19.8489 16.9816 19.8386C16.8795 19.8237 16.7774 19.8089 16.6752 19.794C16.583 19.7944 16.4907 19.7949 16.3984 19.7953Z" fill="var(--stroke-0, #DE9B6E)"/>
</g>
</svg>
